<?xml version="1.0"?>
<!DOCTYPE svg PUBLIC "-//W3C//DTD SVG 1.1//EN" "http://www.w3.org/Graphics/SVG/1.1/DTD/svg11.dtd">
<svg 
version="1.1"
xmlns="http://www.w3.org/2000/svg"
width="77.00000000mm"
height="77.00000000mm"
viewBox="-38.5 -38.5 77.00000000 77.00000000"
>
<polyline points="
2.93039246, 32.36761962
2.83215854, 32.22578747
2.73591653, 32.08355904
2.64168595, 31.94094544
2.54948985, 31.79795751
2.45934967, 31.65460629
2.37129095, 31.51090255
2.28533911, 31.36685711
2.20152380, 31.22248057
2.11987579, 31.07778349
2.04042703, 30.93277643
1.96321456, 30.78746967
1.88827783, 30.64187342
1.81566016, 30.49599774
1.74541030, 30.34985244
1.67758116, 30.20344718
1.61223273, 30.05679134
1.54943273, 29.90989399
1.48925873, 29.76276379
1.43179865, 29.61540904
1.37710581, 29.46783975
1.32335142, 29.32015077
1.26956999, 29.17238749
1.21576105, 29.02454866
1.16192415, 28.87663298
1.10805879, 28.72863912
1.05416448, 28.58056573
1.00024072, 28.43241141
0.94628699, 28.28417474
0.89230276, 28.13585428
0.00000000, 28.00000000
0.00000000, 28.00000000
-0.89230276, 28.13585428
-0.94628699, 28.28417474
-1.00024072, 28.43241141
-1.05416448, 28.58056573
-1.10805879, 28.72863912
-1.16192415, 28.87663298
-1.21576105, 29.02454866
-1.26956999, 29.17238749
-1.32335142, 29.32015077
-1.37710581, 29.46783975
-1.43179865, 29.61540904
-1.48925873, 29.76276379
-1.54943273, 29.90989399
-1.61223273, 30.05679134
-1.67758116, 30.20344718
-1.74541030, 30.34985244
-1.81566016, 30.49599774
-1.88827783, 30.64187342
-1.96321456, 30.78746967
-2.04042703, 30.93277643
-2.11987579, 31.07778349
-2.20152380, 31.22248057
-2.28533911, 31.36685711
-2.37129095, 31.51090255
-2.45934967, 31.65460629
-2.54948985, 31.79795751
-2.64168595, 31.94094544
-2.73591653, 32.08355904
-2.83215854, 32.22578747
-2.93039246, 32.36761962
-3.86325005, 32.26957234
-3.92984876, 32.11041558
-3.99441671, 31.95128534
-4.05693708, 31.79219655
-4.11738962, 31.63316460
-4.17575562, 31.47420476
-4.23201236, 31.31533285
-4.28613722, 31.15656476
-4.33810339, 30.99791701
-4.38788298, 30.83940633
-4.43544693, 30.68104970
-4.48076115, 30.52286486
-4.52378918, 30.36487002
-4.56449071, 30.20708401
-4.60282013, 30.04952657
-4.63872768, 29.89221814
-4.67215662, 29.73518038
-4.70304261, 29.57843624
-4.73131159, 29.42201031
-4.75687925, 29.26592899
-4.77969554, 29.11021317
-4.80156900, 28.95457537
-4.82345347, 28.79885929
-4.84534913, 28.64306359
-4.86725617, 28.48718690
-4.88917478, 28.33122782
-4.91110518, 28.17518493
-4.93304757, 28.01905676
-4.95500214, 27.86284181
-4.97696914, 27.70653855
-5.82152725, 27.38813284
-5.82152725, 27.38813284
-6.72257674, 27.33549820
-6.80621885, 27.46935356
-6.88981370, 27.60313329
-6.97336211, 27.73683870
-7.05686488, 27.87047108
-7.14032281, 28.00403168
-7.22373665, 28.13752173
-7.30710715, 28.27094242
-7.39043504, 28.40429492
-7.47372103, 28.53758038
-7.55790008, 28.67055365
-7.64474129, 28.80274172
-7.73419044, 28.93414589
-7.82615978, 29.06477633
-7.92057165, 29.19464069
-8.01735793, 29.32374416
-8.11645798, 29.45209008
-8.21781804, 29.57967996
-8.32138838, 29.70651436
-8.42712455, 29.83259244
-8.53498583, 29.95791243
-8.64493384, 30.08247195
-8.75693516, 30.20626734
-8.87095748, 30.32929464
-8.98696959, 30.45154968
-9.10494438, 30.57302713
-9.22485464, 30.69372178
-9.34667709, 30.81362730
-9.47038693, 30.93273786
-9.59596277, 31.05104666
-10.48805001, 30.76118995
-10.52010283, 30.59166449
-10.55017477, 30.42258721
-10.57825250, 30.25397617
-10.60431941, 30.08585066
-10.62836036, 29.91822949
-10.65035643, 29.75113289
-10.67028879, 29.58458107
-10.68813466, 29.41859578
-10.70387022, 29.25319918
-10.71747059, 29.08841392
-10.72890611, 28.92426444
-10.73814489, 28.76077614
-10.74515145, 28.59797581
-10.74988524, 28.43589224
-10.75230187, 28.27455578
-10.75235032, 28.11399940
-10.74997244, 27.95425893
-10.74510089, 27.79537384
-10.73765871, 27.63738746
-10.72760126, 27.48033062
-10.71663782, 27.32354614
-10.70566887, 27.16668279
-10.69469431, 27.00973924
-10.68371404, 26.85271410
-10.67272797, 26.69560596
-10.66173599, 26.53841340
-10.65073801, 26.38113492
-10.63973392, 26.22376903
-10.62872360, 26.06631417
-11.38862582, 25.57927290
-11.38862582, 25.57927290
-12.25904187, 25.34044973
-12.36868629, 25.45398985
-12.47826876, 25.56746583
-12.58779035, 25.68087876
-12.69725213, 25.79422975
-12.80665511, 25.90751985
-12.91600029, 26.02075011
-13.02528867, 26.13392154
-13.13452119, 26.24703513
-13.24369879, 26.36009185
-13.35368502, 26.47265753
-13.46611199, 26.58390167
-13.58092692, 26.69383682
-13.69804611, 26.80249117
-13.81739517, 26.90988835
-13.93890856, 27.01604761
-14.06252765, 27.12098479
-14.18820017, 27.22471259
-14.31587761, 27.32724187
-14.44551630, 27.42858106
-14.57707604, 27.52873688
-14.71051881, 27.62771501
-14.84581113, 27.72551879
-14.98292060, 27.82215107
-15.12181582, 27.91761427
-15.26246916, 28.01190881
-15.40485292, 28.10503525
-15.54894302, 28.19699223
-15.69471398, 28.28777922
-15.84214347, 28.37739400
-16.65447187, 27.90839599
-16.65057793, 27.73591092
-16.64483958, 27.56427607
-16.63724755, 27.39351190
-16.62778957, 27.22364072
-16.61645477, 27.05468408
-16.60322883, 26.88666570
-16.58809756, 26.71960927
-16.57104316, 26.55354079
-16.55204698, 26.38848690
-16.53108937, 26.22447491
-16.50814640, 26.06153492
-16.48319217, 25.89969837
-16.45619752, 25.73899888
-16.42712880, 25.57947301
-16.39594888, 25.42115969
-16.36261473, 25.26410179
-16.32707690, 25.10834642
-16.28927774, 24.95394620
-16.24915097, 24.80095951
-16.20665935, 24.64942581
-16.16333817, 24.49834687
-16.11999519, 24.34719194
-16.07663004, 24.19595971
-16.03324236, 24.04464887
-15.98983174, 23.89325806
-15.94639780, 23.74178589
-15.90294012, 23.59023094
-15.85945828, 23.43859175
-15.81595186, 23.28686683
-16.45798682, 22.65247602
-16.45798682, 22.65247602
-17.25972806, 22.23790204
-17.39058281, 22.32616469
-17.52136362, 22.41437746
-17.65207178, 22.50254123
-17.78270854, 22.59065685
-17.91327514, 22.67872513
-18.04377277, 22.76674690
-18.17420259, 22.85472293
-18.30456576, 22.94265400
-18.43486338, 23.03054086
-18.56584986, 23.11777928
-18.69894899, 23.20321759
-18.83411175, 23.28687903
-18.97126211, 23.36880857
-19.11033223, 23.44904480
-19.25126202, 23.52762017
-19.39399740, 23.60456237
-19.53848990, 23.67989469
-19.68469432, 23.75363782
-19.83256969, 23.82580911
-19.98207810, 23.89642348
-20.13318353, 23.96549438
-20.28585394, 24.03303206
-20.44005822, 24.09904603
-20.59576616, 24.16354519
-20.75295083, 24.22653570
-20.91158524, 24.28802385
-21.07164555, 24.34801334
-21.23310675, 24.40650892
-21.39594650, 24.46351310
-22.09301341, 23.83587125
-22.05334290, 23.66796499
-22.01204506, 23.50127384
-21.96911506, 23.33581975
-21.92454556, 23.17162709
-21.87833040, 23.00871919
-21.83046049, 22.84712224
-21.78092689, 22.68686236
-21.72971760, 22.52796869
-21.67681989, 22.37047115
-21.62222024, 22.21440055
-21.56590151, 22.05979130
-21.50784488, 21.90667955
-21.44802882, 21.75510422
-21.38642803, 21.60510810
-21.32301428, 21.45673698
-21.25775439, 21.31004173
-21.19060978, 21.16507872
-21.12153501, 21.02191140
-21.05047739, 20.88061066
-20.97740868, 20.74122284
-20.90362309, 20.60245232
-20.82980038, 20.46361200
-20.75593993, 20.32470068
-20.68204108, 20.18571715
-20.60810317, 20.04666017
-20.53412552, 19.90752845
-20.46010745, 19.76832070
-20.38604824, 19.62903557
-20.31194715, 19.48967170
-20.80805485, 18.73565728
-20.80805485, 18.73565728
-21.50608134, 18.16345136
-21.65242743, 18.22257903
-21.79869083, 18.28167328
-21.94487299, 18.34073471
-22.09097529, 18.39976387
-22.23699912, 18.45876133
-22.38294582, 18.51772763
-22.52881668, 18.57666329
-22.67461300, 18.63556883
-22.82033601, 18.69444475
-22.96659801, 18.75254318
-23.11455223, 18.80844160
-23.26415554, 18.86217291
-23.41534295, 18.91379694
-23.56805611, 18.96336551
-23.72224297, 19.01092287
-23.87785643, 19.05650734
-24.03485389, 19.10015179
-24.19319545, 19.14188585
-24.35284464, 19.18173500
-24.51376749, 19.21972173
-24.67593156, 19.25586669
-24.83930762, 19.29018654
-25.00386725, 19.32269708
-25.16958273, 19.35341328
-25.33642899, 19.38234676
-25.50438097, 19.40950931
-25.67341609, 19.43490947
-25.84351089, 19.45855711
-26.01464404, 19.48045932
-26.56598429, 18.72160460
-26.49227100, 18.56561545
-26.41721858, 18.41115321
-26.34082687, 18.25824033
-26.26309374, 18.10690220
-26.18401803, 17.95716290
-26.10359630, 17.80904995
-26.02182523, 17.66259075
-25.93869913, 17.51781629
-25.85421179, 17.37475850
-25.76835637, 17.23345032
-25.68112327, 17.09392898
-25.59250159, 16.95623374
-25.50247837, 16.82040715
-25.41103776, 16.68649633
-25.31816167, 16.55455194
-25.22382820, 16.42463062
-25.12801136, 16.29679555
-25.03067988, 16.17111823
-24.93179696, 16.04767897
-24.83134463, 15.92652894
-24.73031941, 15.80613177
-24.62924338, 15.68567405
-24.52811567, 15.56515473
-24.42693539, 15.44457276
-24.32570163, 15.32392706
-24.22441346, 15.20321652
-24.12306994, 15.08244001
-24.02167009, 14.96159637
-23.92021292, 14.84068442
-24.24871106, 14.00000043
-24.24871106, 14.00000043
-24.81251570, 13.29517073
-24.96795711, 13.32257924
-25.12331069, 13.34997228
-25.27857798, 13.37735009
-25.43376045, 13.40471295
-25.58885957, 13.43206112
-25.74387676, 13.45939483
-25.89881341, 13.48671435
-26.05367088, 13.51401990
-26.20845048, 13.54131173
-26.36359565, 13.56773099
-26.51993865, 13.59164648
-26.67744414, 13.61309936
-26.83606098, 13.63216165
-26.99574287, 13.64889617
-27.15644812, 13.66335704
-27.31813859, 13.67559153
-27.48077947, 13.68564063
-27.64433789, 13.69354164
-27.80878347, 13.69932706
-27.97408765, 13.70302595
-28.14022300, 13.70466525
-28.30716441, 13.70426734
-28.47488733, 13.70185357
-28.64336778, 13.69744436
-28.81258367, 13.69105629
-28.98251290, 13.68270609
-29.15313519, 13.67240682
-29.32442963, 13.66017301
-29.49637684, 13.64601602
-29.87789421, 12.78911402
-29.77335977, 12.65185946
-29.66783292, 12.51637686
-29.56131817, 12.38268823
-29.45381874, 12.25081882
-29.34533848, 12.12079245
-29.23587974, 11.99263674
-29.12544498, 11.86637918
-29.01403508, 11.74205128
-28.90165060, 11.61968555
-28.78829171, 11.49931564
-28.67395674, 11.38097996
-28.55864321, 11.26471917
-28.44234729, 11.15057760
-28.32506325, 11.03860463
-28.20678393, 10.92885356
-28.08749972, 10.82138437
-27.96719830, 10.71626424
-27.84586396, 10.61356962
-27.72347741, 10.51338672
-27.60003169, 10.41576932
-27.47618215, 10.31900745
-27.35227030, 10.22219690
-27.22829509, 10.12533685
-27.10425544, 10.02842645
-26.98015023, 9.93146483
-26.85597832, 9.83445110
-26.73173855, 9.73738435
-26.60742973, 9.64026365
-26.48305063, 9.54308804
-26.62958227, 8.65247641
-26.62958227, 8.65247641
-27.03452410, 7.84582735
-27.19226729, 7.84031884
-27.34992136, 7.83481344
-27.50748785, 7.82931111
-27.66496827, 7.82381177
-27.82236411, 7.81831539
-27.97967680, 7.81282192
-28.13690776, 7.80733130
-28.29405836, 7.80184348
-28.45112995, 7.79635842
-28.60837770, 7.78994387
-28.76627653, 7.78083121
-28.92480046, 7.76906806
-29.08391441, 7.75473550
-29.24358617, 7.73790460
-29.40378621, 7.71863697
-29.56448705, 7.69698677
-29.72566316, 7.67300133
-29.88729015, 7.64672398
-30.04934505, 7.61819282
-30.21180598, 7.58744221
-30.37465171, 7.55450420
-30.53786231, 7.51940591
-30.70141824, 7.48217334
-30.86530026, 7.44283142
-31.02949022, 7.40140099
-31.19396999, 7.35790299
-31.35872244, 7.31235441
-31.52373013, 7.26477382
-31.68897647, 7.21517637
-31.88399684, 6.29767780
-31.75320990, 6.18515652
-31.62182065, 6.07457481
-31.48983807, 5.96595325
-31.35727056, 5.85931589
-31.22412686, 5.75468523
-31.09041498, 5.65208777
-30.95614306, 5.55154993
-30.82131852, 5.45310231
-30.68594865, 5.35677661
-30.55004061, 5.26260571
-30.41360076, 5.17062752
-30.27663513, 5.08088234
-30.13914918, 4.99341432
-30.00114759, 4.90827295
-29.86263443, 4.82551186
-29.72361276, 4.74519170
-29.58408452, 4.66738077
-29.44405022, 4.59215711
-29.30350891, 4.51960903
-29.16246498, 4.44979062
-29.02120391, 4.38089299
-28.87987179, 4.31196071
-28.73846741, 4.24299318
-28.59698951, 4.17398979
-28.45543684, 4.10494994
-28.31380810, 4.03587298
-28.17210196, 3.96675828
-28.03031705, 3.89760515
-27.88845199, 3.82841294
-27.84661300, 2.92679767
-27.84661300, 2.92679767
-28.07499411, 2.05358368
-28.22814495, 2.01539889
-28.38120926, 1.97723568
-28.53418854, 1.93909367
-28.68708426, 1.90097249
-28.83989786, 1.86287178
-28.99263074, 1.82479121
-29.14528426, 1.78673041
-29.29785976, 1.74868907
-29.45035855, 1.71066686
-29.60283640, 1.67169883
-29.75539014, 1.62995630
-29.90800424, 1.58549122
-30.06066126, 1.53839021
-30.21334448, 1.48872948
-30.36603779, 1.43657543
-30.51872561, 1.38198675
-30.67139278, 1.32501506
-30.82402446, 1.26570780
-30.97660611, 1.20410700
-31.12912347, 1.14025084
-31.28156243, 1.07417507
-31.43390915, 1.00591038
-31.58614990, 0.93548623
-31.73827106, 0.86293105
-31.89025920, 0.78826895
-32.04210095, 0.71152422
-32.19378308, 0.63271704
-32.34529240, 0.55186917
-32.49661582, 0.46899889
-32.49661585, -0.46899715
-32.34529243, -0.55186744
-32.19378312, -0.63271531
-32.04210099, -0.71152251
-31.89025925, -0.78826724
-31.73827111, -0.86292935
-31.58614995, -0.93548454
-31.43390920, -1.00590869
-31.28156249, -1.07417339
-31.12912353, -1.14024917
-30.97660618, -1.20410534
-30.82402453, -1.26570614
-30.67139285, -1.32501342
-30.51872568, -1.38198512
-30.36603787, -1.43657381
-30.21334456, -1.48872787
-30.06066135, -1.53838860
-29.90800432, -1.58548962
-29.75539023, -1.62995470
-29.60283649, -1.67169725
-29.45035864, -1.71066528
-29.29785985, -1.74868750
-29.14528435, -1.78672885
-28.99263083, -1.82478965
-28.83989796, -1.86287024
-28.68708437, -1.90097095
-28.53418865, -1.93909214
-28.38120937, -1.97723416
-28.22814506, -2.01539738
-28.07499422, -2.05358218
-27.84661315, -2.92679618
-27.84661315, -2.92679618
-27.88845220, -3.82841144
-28.03031726, -3.89760365
-28.17210217, -3.96675677
-28.31380832, -4.03587147
-28.45543706, -4.10494842
-28.59698974, -4.17398826
-28.73846763, -4.24299164
-28.87987203, -4.31195916
-29.02120415, -4.38089144
-29.16246521, -4.44978905
-29.30350915, -4.51960746
-29.44405046, -4.59215553
-29.58408477, -4.66737919
-29.72361302, -4.74519011
-29.86263469, -4.82551026
-30.00114785, -4.90827134
-30.13914945, -4.99341271
-30.27663540, -5.08088072
-30.41360103, -5.17062589
-30.55004089, -5.26260407
-30.68594893, -5.35677497
-30.82131881, -5.45310066
-30.95614336, -5.55154827
-31.09041529, -5.65208611
-31.22412716, -5.75468355
-31.35727088, -5.85931421
-31.48983839, -5.96595156
-31.62182097, -6.07457311
-31.75321023, -6.18515482
-31.88399717, -6.29767609
-31.68897686, -7.21517467
-31.52373052, -7.26477214
-31.35872283, -7.31235273
-31.19397038, -7.35790131
-31.02949062, -7.40139932
-30.86530066, -7.44282977
-30.70141864, -7.48217169
-30.53786272, -7.51940427
-30.37465211, -7.55450257
-30.21180639, -7.58744059
-30.04934546, -7.61819121
-29.88729056, -7.64672238
-29.72566358, -7.67299974
-29.56448747, -7.69698518
-29.40378662, -7.71863539
-29.24358659, -7.73790304
-29.08391482, -7.75473394
-28.92480087, -7.76906651
-28.76627695, -7.78082967
-28.60837812, -7.78994234
-28.45113037, -7.79635690
-28.29405878, -7.80184196
-28.13690817, -7.80732979
-27.97967722, -7.81282042
-27.82236452, -7.81831390
-27.66496869, -7.82381029
-27.50748827, -7.82930963
-27.34992178, -7.83481198
-27.19226771, -7.84031738
-27.03452452, -7.84582590
-26.62958273, -8.65247499
-26.62958273, -8.65247499
-26.48305114, -9.54308662
-26.60743025, -9.64026222
-26.73173907, -9.73738291
-26.85597885, -9.83444966
-26.98015076, -9.93146338
-27.10425598, -10.02842499
-27.22829564, -10.12533539
-27.35227085, -10.22219543
-27.47618270, -10.31900597
-27.60003225, -10.41576784
-27.72347797, -10.51338523
-27.84586453, -10.61356813
-27.96719887, -10.71626274
-28.08750030, -10.82138286
-28.20678452, -10.92885205
-28.32506384, -11.03860311
-28.44234788, -11.15057608
-28.55864381, -11.26471764
-28.67395735, -11.38097842
-28.78829233, -11.49931410
-28.90165123, -11.61968400
-29.01403571, -11.74204973
-29.12544561, -11.86637762
-29.23588038, -11.99263517
-29.34533913, -12.12079088
-29.45381939, -12.25081724
-29.56131884, -12.38268664
-29.66783359, -12.51637527
-29.77336045, -12.65185786
-29.87789490, -12.78911241
-29.49637757, -13.64601444
-29.32443036, -13.66017144
-29.15313593, -13.67240526
-28.98251363, -13.68270454
-28.81258440, -13.69105475
-28.64336852, -13.69744283
-28.47488807, -13.70185205
-28.30716514, -13.70426582
-28.14022373, -13.70466374
-27.97408838, -13.70302445
-27.80878420, -13.69932557
-27.64433862, -13.69354016
-27.48078021, -13.68563916
-27.31813933, -13.67559007
-27.15644885, -13.66335559
-26.99574360, -13.64889473
-26.83606171, -13.63216021
-26.67744487, -13.61309793
-26.51993938, -13.59164506
-26.36359638, -13.56772958
-26.20845121, -13.54131032
-26.05367160, -13.51401850
-25.89881413, -13.48671296
-25.74387748, -13.45939345
-25.58886029, -13.43205974
-25.43376117, -13.40471159
-25.27857869, -13.37734874
-25.12331141, -13.34997093
-24.96795782, -13.32257791
-24.81251641, -13.29516940
-24.24871181, -13.99999913
-24.24871181, -13.99999913
-23.92021371, -14.84068314
-24.02167089, -14.96159509
-24.12307075, -15.08243872
-24.22441427, -15.20321522
-24.32570245, -15.32392575
-24.42693621, -15.44457145
-24.52811650, -15.56515341
-24.62924422, -15.68567273
-24.73032026, -15.80613045
-24.83134548, -15.92652761
-24.93179782, -16.04767763
-25.03068074, -16.17111689
-25.12801223, -16.29679420
-25.22382908, -16.42462927
-25.31816255, -16.55455058
-25.41103866, -16.68649497
-25.50247928, -16.82040579
-25.59250249, -16.95623237
-25.68112418, -17.09392760
-25.76835729, -17.23344894
-25.85421272, -17.37475711
-25.93870007, -17.51781490
-26.02182617, -17.66258935
-26.10359726, -17.80904855
-26.18401900, -17.95716150
-26.26309471, -18.10690079
-26.34082784, -18.25823892
-26.41721957, -18.41115179
-26.49227200, -18.56561403
-26.56598529, -18.72160318
-26.01464508, -19.48045793
-25.84351193, -19.45855573
-25.67341713, -19.43490810
-25.50438201, -19.40950794
-25.33643003, -19.38234540
-25.16958376, -19.35341193
-25.00386829, -19.32269574
-24.83930866, -19.29018521
-24.67593259, -19.25586536
-24.51376852, -19.21972042
-24.35284567, -19.18173370
-24.19319648, -19.14188455
-24.03485492, -19.10015050
-23.87785745, -19.05650607
-23.72224399, -19.01092160
-23.56805712, -18.96336424
-23.41534396, -18.91379568
-23.26415655, -18.86217167
-23.11455324, -18.80844036
-22.96659902, -18.75254195
-22.82033701, -18.69444352
-22.67461400, -18.63556761
-22.52881768, -18.57666208
-22.38294681, -18.51772643
-22.23700011, -18.45876014
-22.09097628, -18.39976269
-21.94487397, -18.34073353
-21.79869181, -18.28167211
-21.65242841, -18.22257786
-21.50608231, -18.16345021
-20.80805585, -18.73565616
-20.80805585, -18.73565616
-20.31194820, -19.48967061
-20.38604929, -19.62903448
-20.46010851, -19.76831960
-20.53412659, -19.90752735
-20.60810424, -20.04665906
-20.68204216, -20.18571604
-20.75594102, -20.32469957
-20.82980148, -20.46361088
-20.90362420, -20.60245120
-20.97740980, -20.74122172
-21.05047851, -20.88060954
-21.12153613, -21.02191027
-21.19061091, -21.16507758
-21.25775553, -21.31004059
-21.32301543, -21.45673584
-21.38642919, -21.60510696
-21.44802999, -21.75510307
-21.50784605, -21.90667840
-21.56590269, -22.05979014
-21.62222143, -22.21439939
-21.67682109, -22.37046999
-21.72971880, -22.52796752
-21.78092810, -22.68686120
-21.83046172, -22.84712107
-21.87833163, -23.00871802
-21.92454680, -23.17162591
-21.96911632, -23.33581857
-22.01204632, -23.50127266
-22.05334417, -23.66796381
-22.09301469, -23.83587007
-21.39594782, -24.46351195
-21.23310806, -24.40650779
-21.07164686, -24.34801221
-20.91158654, -24.28802273
-20.75295213, -24.22653458
-20.59576746, -24.16354409
-20.44005952, -24.09904494
-20.28585523, -24.03303097
-20.13318482, -23.96549330
-19.98207938, -23.89642241
-19.83257096, -23.82580804
-19.68469559, -23.75363677
-19.53849117, -23.67989364
-19.39399867, -23.60456133
-19.25126328, -23.52761914
-19.11033349, -23.44904377
-18.97126336, -23.36880755
-18.83411299, -23.28687802
-18.69895024, -23.20321659
-18.56585110, -23.11777828
-18.43486462, -23.03053987
-18.30456699, -22.94265302
-18.17420382, -22.85472195
-18.04377399, -22.76674593
-17.91327636, -22.67872417
-17.78270975, -22.59065590
-17.65207298, -22.50254029
-17.52136482, -22.41437652
-17.39058400, -22.32616376
-17.25972925, -22.23790112
-16.45798804, -22.65247514
-16.45798804, -22.65247514
-15.81595311, -23.28686598
-15.85945954, -23.43859090
-15.90294138, -23.59023008
-15.94639907, -23.74178504
-15.98983302, -23.89325720
-16.03324365, -24.04464801
-16.07663134, -24.19595885
-16.11999649, -24.34719107
-16.16333948, -24.49834600
-16.20666067, -24.64942494
-16.24915230, -24.80095864
-16.28927908, -24.95394532
-16.32707825, -25.10834554
-16.36261609, -25.26410091
-16.39595025, -25.42115882
-16.42713017, -25.57947213
-16.45619890, -25.73899799
-16.48319356, -25.89969749
-16.50814780, -26.06153403
-16.53109077, -26.22447402
-16.55204840, -26.38848601
-16.57104459, -26.55353990
-16.58809899, -26.71960838
-16.60323027, -26.88666481
-16.61645622, -27.05468319
-16.62779103, -27.22363983
-16.63724902, -27.39351100
-16.64484106, -27.56427518
-16.65057942, -27.73591003
-16.65447336, -27.90839510
-15.84214499, -28.37739315
-15.69471550, -28.28777837
-15.54894453, -28.19699140
-15.40485443, -28.10503442
-15.26247066, -28.01190799
-15.12181732, -27.91761346
-14.98292209, -27.82215027
-14.84581262, -27.72551799
-14.71052029, -27.62771422
-14.57707751, -27.52873610
-14.44551777, -27.42858028
-14.31587908, -27.32724110
-14.18820163, -27.22471183
-14.06252910, -27.12098404
-13.93891001, -27.01604686
-13.81739661, -26.90988761
-13.69804754, -26.80249043
-13.58092835, -26.69383609
-13.46611341, -26.58390095
-13.35368644, -26.47265681
-13.24370020, -26.36009114
-13.13452260, -26.24703443
-13.02529007, -26.13392084
-12.91600169, -26.02074942
-12.80665649, -25.90751917
-12.69725351, -25.79422907
-12.58779173, -25.68087809
-12.47827013, -25.56746516
-12.36868765, -25.45398919
-12.25904322, -25.34044907
-11.38862719, -25.57927229
-11.38862719, -25.57927229
-10.62872500, -26.06631360
-10.63973532, -26.22376846
-10.65073943, -26.38113435
-10.66173742, -26.53841282
-10.67272940, -26.69560539
-10.68371548, -26.85271352
-10.69469576, -27.00973866
-10.70567033, -27.16668222
-10.71663929, -27.32354557
-10.72760274, -27.48033005
-10.73766019, -27.63738688
-10.74510238, -27.79537326
-10.74997394, -27.95425836
-10.75235183, -28.11399883
-10.75230338, -28.27455520
-10.74988677, -28.43589166
-10.74515298, -28.59797523
-10.73814644, -28.76077557
-10.72890766, -28.92426387
-10.71747215, -29.08841334
-10.70387179, -29.25319861
-10.68813623, -29.41859521
-10.67029038, -29.58458050
-10.65035802, -29.75113231
-10.62836197, -29.91822892
-10.60432102, -30.08585009
-10.57825413, -30.25397560
-10.55017640, -30.42258664
-10.52010447, -30.59166393
-10.48805166, -30.76118939
-9.59596443, -31.05104614
-9.47038859, -30.93273735
-9.34667874, -30.81362680
-9.22485628, -30.69372129
-9.10494602, -30.57302664
-8.98697122, -30.45154919
-8.87095910, -30.32929417
-8.75693677, -30.20626687
-8.64493546, -30.08247149
-8.53498743, -29.95791197
-8.42712615, -29.83259199
-8.32138997, -29.70651391
-8.21781962, -29.57967952
-8.11645956, -29.45208964
-8.01735950, -29.32374373
-7.92057321, -29.19464026
-7.82616134, -29.06477591
-7.73419199, -28.93414547
-7.64474283, -28.80274131
-7.55790161, -28.67055324
-7.47372256, -28.53757998
-7.39043656, -28.40429453
-7.30710866, -28.27094203
-7.22373815, -28.13752134
-7.14032431, -28.00403129
-7.05686638, -27.87047070
-6.97336359, -27.73683832
-6.88981517, -27.60313292
-6.80622032, -27.46935320
-6.72257820, -27.33549784
-5.82152871, -27.38813253
-5.82152871, -27.38813253
-4.97697062, -27.70653828
-4.95500364, -27.86284154
-4.93304907, -28.01905650
-4.91110669, -28.17518467
-4.88917630, -28.33122756
-4.86725769, -28.48718664
-4.84535066, -28.64306333
-4.82345501, -28.79885904
-4.80157055, -28.95457512
-4.77969710, -29.11021291
-4.75688082, -29.26592874
-4.73131317, -29.42201006
-4.70304420, -29.57843598
-4.67215822, -29.73518013
-4.63872928, -29.89221789
-4.60282174, -30.04952632
-4.56449233, -30.20708377
-4.52379080, -30.36486978
-4.48076279, -30.52286462
-4.43544857, -30.68104946
-4.38788463, -30.83940610
-4.33810505, -30.99791678
-4.28613889, -31.15656453
-4.23201404, -31.31533262
-4.17575731, -31.47420453
-4.11739131, -31.63316438
-4.05693879, -31.79219633
-3.99441842, -31.95128513
-3.92985048, -32.11041537
-3.86325178, -32.26957213
-2.93039419, -32.36761947
-2.83216027, -32.22578732
-2.73591825, -32.08355889
-2.64168766, -31.94094529
-2.54949155, -31.79795737
-2.45935137, -31.65460616
-2.37129264, -31.51090242
-2.28534079, -31.36685699
-2.20152548, -31.22248045
-2.11987746, -31.07778338
-2.04042869, -30.93277632
-1.96321621, -30.78746956
-1.88827947, -30.64187332
-1.81566180, -30.49599764
-1.74541193, -30.34985234
-1.67758277, -30.20344709
-1.61223434, -30.05679125
-1.54943434, -29.90989390
-1.48926032, -29.76276371
-1.43180023, -29.61540896
-1.37710739, -29.46783968
-1.32335299, -29.32015070
-1.26957155, -29.17238743
-1.21576261, -29.02454860
-1.16192570, -28.87663292
-1.10806033, -28.72863906
-1.05416602, -28.58056567
-1.00024225, -28.43241135
-0.94628851, -28.28417469
-0.89230426, -28.13585423
-0.00000150, -28.00000000
-0.00000150, -28.00000000
0.89230125, -28.13585432
0.94628548, -28.28417479
1.00023920, -28.43241146
1.05416295, -28.58056578
1.10805725, -28.72863918
1.16192260, -28.87663304
1.21575950, -29.02454873
1.26956842, -29.17238756
1.32334985, -29.32015084
1.37710423, -29.46783982
1.43179706, -29.61540912
1.48925713, -29.76276387
1.54943113, -29.90989407
1.61223112, -30.05679143
1.67757954, -30.20344727
1.74540868, -30.34985253
1.81565853, -30.49599784
1.88827619, -30.64187352
1.96321291, -30.78746977
2.04042538, -30.93277654
2.11987413, -31.07778360
2.20152213, -31.22248069
2.28533743, -31.36685724
2.37128927, -31.51090267
2.45934798, -31.65460642
2.54948815, -31.79795764
2.64168424, -31.94094558
2.73591481, -32.08355919
2.83215681, -32.22578762
2.93039073, -32.36761978
3.86324832, -32.26957255
3.92984704, -32.11041579
3.99441499, -31.95128556
4.05693538, -31.79219677
4.11738792, -31.63316482
4.17575394, -31.47420498
4.23201068, -31.31533308
4.28613555, -31.15656499
4.33810173, -30.99791724
4.38788133, -30.83940657
4.43544529, -30.68104993
4.48075952, -30.52286510
4.52378755, -30.36487026
4.56448909, -30.20708426
4.60281852, -30.04952681
4.63872608, -29.89221839
4.67215503, -29.73518063
4.70304103, -29.57843649
4.73131001, -29.42201056
4.75687768, -29.26592925
4.77969398, -29.11021342
4.80156745, -28.95457563
4.82345193, -28.79885955
4.84534759, -28.64306385
4.86725464, -28.48718716
4.88917327, -28.33122808
4.91110367, -28.17518519
4.93304606, -28.01905702
4.95500065, -27.86284208
4.97696765, -27.70653881
5.82152578, -27.38813315
5.82152578, -27.38813315
6.72257527, -27.33549856
6.80621737, -27.46935393
6.88981222, -27.60313366
6.97336062, -27.73683907
7.05686339, -27.87047145
7.14032131, -28.00403206
7.22373514, -28.13752211
7.30710563, -28.27094281
7.39043351, -28.40429532
7.47371950, -28.53758078
7.55789854, -28.67055405
7.64473975, -28.80274213
7.73418889, -28.93414630
7.82615822, -29.06477675
7.92057008, -29.19464111
8.01735636, -29.32374459
8.11645640, -29.45209051
8.21781645, -29.57968040
8.32138679, -29.70651481
8.42712295, -29.83259289
8.53498422, -29.95791288
8.64493223, -30.08247242
8.75693354, -30.20626781
8.87095585, -30.32929512
8.98696796, -30.45155016
9.10494274, -30.57302762
9.22485299, -30.69372228
9.34667543, -30.81362780
9.47038527, -30.93273836
9.59596110, -31.05104717
10.48804836, -30.76119051
10.52010119, -30.59166506
10.55017314, -30.42258777
10.57825088, -30.25397673
10.60431779, -30.08585123
10.62835876, -29.91823006
10.65035483, -29.75113346
10.67028721, -29.58458164
10.68813308, -29.41859635
10.70386865, -29.25319975
10.71746903, -29.08841449
10.72890456, -28.92426502
10.73814335, -28.76077672
10.74514992, -28.59797638
10.74988372, -28.43589281
10.75230035, -28.27455636
10.75234882, -28.11399998
10.74997094, -27.95425951
10.74509940, -27.79537441
10.73765723, -27.63738803
10.72759979, -27.48033120
10.71663636, -27.32354672
10.70566741, -27.16668337
10.69469286, -27.00973981
10.68371260, -26.85271467
10.67272654, -26.69560653
10.66173457, -26.53841397
10.65073660, -26.38113549
10.63973251, -26.22376960
10.62872220, -26.06631474
11.38862445, -25.57927351
11.38862445, -25.57927351
12.25904051, -25.34045039
12.36868492, -25.45399052
12.47826739, -25.56746650
12.58778898, -25.68087944
12.69725075, -25.79423043
12.80665372, -25.90752054
12.91599890, -26.02075080
13.02528727, -26.13392224
13.13451978, -26.24703583
13.24369738, -26.36009256
13.35368360, -26.47265824
13.46611056, -26.58390239
13.58092549, -26.69383754
13.69804467, -26.80249190
13.81739372, -26.90988909
13.93890711, -27.01604835
14.06252620, -27.12098555
14.18819871, -27.22471336
14.31587615, -27.32724264
14.44551483, -27.42858183
14.57707456, -27.52873766
14.71051733, -27.62771579
14.84580964, -27.72551958
14.98291911, -27.82215187
15.12181432, -27.91761508
15.26246766, -28.01190963
15.40485142, -28.10503608
15.54894151, -28.19699307
15.69471247, -28.28778006
15.84214195, -28.37739485
16.65447037, -27.90839688
16.65057644, -27.73591181
16.64483811, -27.56427696
16.63724608, -27.39351279
16.62778811, -27.22364161
16.61645332, -27.05468497
16.60322739, -26.88666659
16.58809613, -26.71961016
16.57104174, -26.55354168
16.55204557, -26.38848778
16.53108796, -26.22447580
16.50814501, -26.06153580
16.48319078, -25.89969926
16.45619614, -25.73899976
16.42712743, -25.57947389
16.39594752, -25.42116057
16.36261338, -25.26410266
16.32707555, -25.10834729
16.28927640, -24.95394707
16.24914964, -24.80096038
16.20665803, -24.64942668
16.16333685, -24.49834774
16.11999388, -24.34719280
16.07662875, -24.19596057
16.03324107, -24.04464973
15.98983046, -23.89325892
15.94639653, -23.74178674
15.90293885, -23.59023179
15.85945702, -23.43859260
15.81595061, -23.28686768
16.45798561, -22.65247690
16.45798561, -22.65247690
17.25972687, -22.23790297
17.39058161, -22.32616562
17.52136242, -22.41437840
17.65207057, -22.50254218
17.78270733, -22.59065780
17.91327393, -22.67872609
18.04377155, -22.76674786
18.17420137, -22.85472390
18.30456453, -22.94265498
18.43486215, -23.03054184
18.56584863, -23.11778027
18.69894775, -23.20321859
18.83411050, -23.28688004
18.97126086, -23.36880959
19.11033098, -23.44904582
19.25126075, -23.52762120
19.39399614, -23.60456341
19.53848863, -23.67989573
19.68469304, -23.75363888
19.83256841, -23.82581017
19.98207682, -23.89642455
20.13318225, -23.96549546
20.28585265, -24.03303314
20.44005693, -24.09904713
20.59576487, -24.16354629
20.75294953, -24.22653681
20.91158394, -24.28802497
21.07164425, -24.34801447
21.23310544, -24.40651006
21.39594519, -24.46351425
22.09301213, -23.83587244
22.05334164, -23.66796617
22.01204380, -23.50127502
21.96911381, -23.33582092
21.92454432, -23.17162826
21.87832917, -23.00872037
21.83045927, -22.84712341
21.78092567, -22.68686353
21.72971639, -22.52796985
21.67681869, -22.37047231
21.62221905, -22.21440171
21.56590033, -22.05979245
21.50784370, -21.90668070
21.44802766, -21.75510537
21.38642687, -21.60510925
21.32301313, -21.45673813
21.25775324, -21.31004287
21.19060864, -21.16507985
21.12153388, -21.02191253
21.05047627, -20.88061179
20.97740757, -20.74122396
20.90362199, -20.60245344
20.82979929, -20.46361311
20.75593884, -20.32470179
20.68204000, -20.18571826
20.60810209, -20.04666127
20.53412446, -19.90752955
20.46010639, -19.76832179
20.38604718, -19.62903666
20.31194611, -19.48967279
20.80805384, -18.73565839
20.80805384, -18.73565839
21.50608037, -18.16345252
21.65242645, -18.22258019
21.79868985, -18.28167445
21.94487200, -18.34073588
22.09097431, -18.39976506
22.23699813, -18.45876253
22.38294483, -18.51772883
22.52881569, -18.57666449
22.67461200, -18.63557004
22.82033501, -18.69444597
22.96659701, -18.75254441
23.11455122, -18.80844284
23.26415453, -18.86217416
23.41534193, -18.91379819
23.56805509, -18.96336677
23.72224195, -19.01092414
23.87785541, -19.05650862
24.03485287, -19.10015308
24.19319442, -19.14188715
24.35284362, -19.18173631
24.51376646, -19.21972305
24.67593052, -19.25586801
24.83930659, -19.29018787
25.00386622, -19.32269842
25.16958169, -19.35341462
25.33642795, -19.38234812
25.50437993, -19.40951067
25.67341505, -19.43491085
25.84350985, -19.45855850
26.01464300, -19.48046072
26.56598329, -18.72160602
26.49227001, -18.56561687
26.41721759, -18.41115462
26.34082589, -18.25824174
26.26309277, -18.10690361
26.18401707, -17.95716431
26.10359535, -17.80905134
26.02182428, -17.66259214
25.93869819, -17.51781768
25.85421086, -17.37475988
25.76835545, -17.23345170
25.68112235, -17.09393035
25.59250068, -16.95623511
25.50247747, -16.82040852
25.41103687, -16.68649769
25.31816078, -16.55455330
25.22382732, -16.42463197
25.12801048, -16.29679690
25.03067901, -16.17111957
24.93179610, -16.04768030
24.83134377, -15.92653027
24.73031857, -15.80613310
24.62924254, -15.68567537
24.52811484, -15.56515604
24.42693456, -15.44457407
24.32570080, -15.32392836
24.22441265, -15.20321782
24.12306913, -15.08244130
24.02166929, -14.96159766
23.92021212, -14.84068570
24.24871031, -14.00000173
24.24871031, -14.00000173
24.81251499, -13.29517206
24.96795640, -13.32258058
25.12330998, -13.34997362
25.27857726, -13.37735145
25.43375973, -13.40471432
25.58885885, -13.43206249
25.74387604, -13.45939621
25.89881269, -13.48671574
26.05367015, -13.51402130
26.20844976, -13.54131313
26.36359493, -13.56773240
26.51993792, -13.59164790
26.67744341, -13.61310079
26.83606025, -13.63216309
26.99574214, -13.64889762
27.15644739, -13.66335850
27.31813786, -13.67559300
27.48077874, -13.68564211
27.64433715, -13.69354313
27.80878273, -13.69932855
27.97408691, -13.70302745
28.14022226, -13.70466676
28.30716367, -13.70426885
28.47488660, -13.70185510
28.64336705, -13.69744590
28.81258293, -13.69105784
28.98251217, -13.68270765
29.15313446, -13.67240839
29.32442890, -13.66017459
29.49637611, -13.64601761
29.87789353, -12.78911562
29.77335910, -12.65186106
29.66783225, -12.51637845
29.56131751, -12.38268981
29.45381808, -12.25082040
29.34533783, -12.12079403
29.23587910, -11.99263830
29.12544434, -11.86638074
29.01403445, -11.74205284
28.90164998, -11.61968710
28.78829110, -11.49931719
28.67395613, -11.38098149
28.55864261, -11.26472070
28.44234669, -11.15057913
28.32506265, -11.03860615
28.20678335, -10.92885507
28.08749914, -10.82138587
27.96719773, -10.71626574
27.84586339, -10.61357112
27.72347685, -10.51338820
27.60003114, -10.41577080
27.47618159, -10.31900892
27.35226975, -10.22219836
27.22829455, -10.12533831
27.10425490, -10.02842790
26.98014970, -9.93146627
26.85597780, -9.83445254
26.73173803, -9.73738578
26.60742921, -9.64026507
26.48305012, -9.54308946
26.62958181, -8.65247784
26.62958181, -8.65247784
27.03452368, -7.84582880
27.19226687, -7.84032030
27.34992094, -7.83481491
27.50748743, -7.82931258
27.66496785, -7.82381326
27.82236369, -7.81831688
27.97967638, -7.81282342
28.13690734, -7.80733280
28.29405794, -7.80184500
28.45112953, -7.79635995
28.60837728, -7.78994540
28.76627612, -7.78083275
28.92480004, -7.76906961
29.08391399, -7.75473706
29.24358576, -7.73790617
29.40378579, -7.71863854
29.56448664, -7.69698835
29.72566275, -7.67300292
29.88728974, -7.64672558
30.04934465, -7.61819443
30.21180558, -7.58744382
30.37465130, -7.55450582
30.53786191, -7.51940755
30.70141784, -7.48217498
30.86529987, -7.44283308
31.02948983, -7.40140265
31.19396959, -7.35790466
31.35872205, -7.31235609
31.52372974, -7.26477551
31.68897609, -7.21517806
31.88399650, -6.29767951
31.75320957, -6.18515822
31.62182032, -6.07457650
31.48983775, -5.96595494
31.35727025, -5.85931757
31.22412655, -5.75468690
31.09041468, -5.65208944
30.95614277, -5.55155159
30.82131823, -5.45310396
30.68594836, -5.35677825
30.55004033, -5.26260735
30.41360048, -5.17062915
30.27663485, -5.08088397
30.13914891, -4.99341594
30.00114733, -4.90827456
29.86263418, -4.82551346
29.72361251, -4.74519330
29.58408427, -4.66738236
29.44404997, -4.59215869
29.30350866, -4.51961060
29.16246474, -4.44979218
29.02120368, -4.38089455
28.87987156, -4.31196225
28.73846718, -4.24299472
28.59698929, -4.17399133
28.45543662, -4.10495147
28.31380789, -4.03587450
28.17210175, -3.96675979
28.03031684, -3.89760666
27.88845178, -3.82841443
27.84661284, -2.92679916
27.84661284, -2.92679916
28.07499400, -2.05358519
28.22814484, -2.01540041
28.38120915, -1.97723720
28.53418844, -1.93909520
28.68708416, -1.90097402
28.83989776, -1.86287333
28.99263064, -1.82479276
29.14528416, -1.78673197
29.29785967, -1.74869064
29.45035846, -1.71066844
29.60283631, -1.67170042
29.75539005, -1.62995789
29.90800415, -1.58549283
30.06066118, -1.53839182
30.21334440, -1.48873110
30.36603771, -1.43657706
30.51872553, -1.38198839
30.67139271, -1.32501671
30.82402439, -1.26570945
30.97660605, -1.20410866
31.12912341, -1.14025250
31.28156237, -1.07417675
31.43390909, -1.00591206
31.58614985, -0.93548793
31.73827102, -0.86293275
31.89025916, -0.78827066
32.04210091, -0.71152594
32.19378305, -0.63271876
32.34529237, -0.55187090
32.49661580, -0.46900063
32.49661587, 0.46899540
32.34529246, 0.55186570
32.19378315, 0.63271359
32.04210103, 0.71152079
31.89025929, 0.78826554
31.73827115, 0.86292765
31.58615000, 0.93548285
31.43390926, 1.00590701
31.28156254, 1.07417172
31.12912359, 1.14024750
30.97660624, 1.20410368
30.82402459, 1.26570449
30.67139292, 1.32501178
30.51872575, 1.38198348
30.36603794, 1.43657218
30.21334464, 1.48872625
30.06066143, 1.53838699
29.90800441, 1.58548802
29.75539032, 1.62995311
29.60283658, 1.67169566
29.45035874, 1.71066370
29.29785995, 1.74868593
29.14528445, 1.78672729
28.99263093, 1.82478810
28.83989806, 1.86286869
28.68708447, 1.90096941
28.53418875, 1.93909061
28.38120947, 1.97723264
28.22814517, 2.01539587
28.07499433, 2.05358067
27.84661331, 2.92679468
27.84661331, 2.92679468
27.88845240, 3.82840995
28.03031747, 3.89760215
28.17210238, 3.96675526
28.31380853, 4.03586995
28.45543728, 4.10494689
28.59698996, 4.17398673
28.73846786, 4.24299010
28.87987226, 4.31195761
29.02120438, 4.38088988
29.16246545, 4.44978749
29.30350939, 4.51960589
29.44405071, 4.59215395
29.58408502, 4.66737760
29.72361327, 4.74518852
29.86263495, 4.82550866
30.00114812, 4.90826973
30.13914972, 4.99341109
30.27663567, 5.08087910
30.41360131, 5.17062426
30.55004117, 5.26260244
30.68594922, 5.35677332
30.82131910, 5.45309901
30.95614366, 5.55154661
31.09041559, 5.65208444
31.22412747, 5.75468188
31.35727119, 5.85931253
31.48983871, 5.96594987
31.62182130, 6.07457142
31.75321056, 6.18515311
31.88399751, 6.29767438
31.68897725, 7.21517297
31.52373091, 7.26477045
31.35872322, 7.31235105
31.19397078, 7.35789964
31.02949102, 7.40139766
30.86530106, 7.44282812
30.70141904, 7.48217005
30.53786312, 7.51940264
30.37465252, 7.55450094
30.21180680, 7.58743897
30.04934587, 7.61818960
29.88729097, 7.64672078
29.72566399, 7.67299814
29.56448788, 7.69698360
29.40378703, 7.71863382
29.24358700, 7.73790147
29.08391524, 7.75473238
28.92480129, 7.76906496
28.76627737, 7.78082813
28.60837853, 7.78994080
28.45113078, 7.79635537
28.29405919, 7.80184045
28.13690859, 7.80732828
27.97967763, 7.81281892
27.82236494, 7.81831241
27.66496911, 7.82380881
27.50748869, 7.82930816
27.34992220, 7.83481051
27.19226813, 7.84031593
27.03452494, 7.84582445
26.62958320, 8.65247356
26.62958320, 8.65247356
26.48305165, 9.54308520
26.60743076, 9.64026080
26.73173960, 9.73738148
26.85597938, 9.83444822
26.98015129, 9.93146193
27.10425652, 10.02842354
27.22829618, 10.12533393
27.35227140, 10.22219397
27.47618325, 10.31900450
27.60003281, 10.41576636
27.72347854, 10.51338374
27.84586510, 10.61356664
27.96719945, 10.71626124
28.08750088, 10.82138136
28.20678510, 10.92885054
28.32506443, 11.03860159
28.44234848, 11.15057455
28.55864442, 11.26471611
28.67395796, 11.38097688
28.78829294, 11.49931256
28.90165185, 11.61968246
29.01403634, 11.74204817
29.12544625, 11.86637606
29.23588102, 11.99263360
29.34533978, 12.12078931
29.45382005, 12.25081566
29.56131950, 12.38268506
29.66783426, 12.51637368
29.77336113, 12.65185627
29.87789559, 12.78911081
29.49637830, 13.64601286
29.32443110, 13.66016987
29.15313666, 13.67240370
28.98251437, 13.68270299
28.81258514, 13.69105320
28.64336925, 13.69744129
28.47488880, 13.70185052
28.30716588, 13.70426430
28.14022447, 13.70466223
27.97408912, 13.70302296
27.80878494, 13.69932408
27.64433935, 13.69353868
27.48078094, 13.68563769
27.31814006, 13.67558860
27.15644958, 13.66335413
26.99574434, 13.64889328
26.83606244, 13.63215877
26.67744560, 13.61309650
26.51994011, 13.59164364
26.36359711, 13.56772817
26.20845193, 13.54130892
26.05367232, 13.51401711
25.89881486, 13.48671157
25.74387820, 13.45939207
25.58886101, 13.43205837
25.43376189, 13.40471023
25.27857941, 13.37734738
25.12331212, 13.34996958
24.96795854, 13.32257657
24.81251713, 13.29516807
24.24871256, 13.99999783
24.24871256, 13.99999783
23.92021451, 14.84068186
24.02167169, 14.96159380
24.12307156, 15.08243743
24.22441509, 15.20321392
24.32570327, 15.32392445
24.42693704, 15.44457014
24.52811734, 15.56515210
24.62924507, 15.68567141
24.73032111, 15.80612912
24.83134633, 15.92652628
24.93179868, 16.04767629
25.03068161, 16.17111555
25.12801310, 16.29679286
25.22382996, 16.42462792
25.31816344, 16.55454923
25.41103955, 16.68649361
25.50248018, 16.82040442
25.59250340, 16.95623099
25.68112510, 17.09392622
25.76835822, 17.23344756
25.85421365, 17.37475573
25.93870101, 17.51781351
26.02182712, 17.66258796
26.10359821, 17.80904715
26.18401996, 17.95716010
26.26309568, 18.10689938
26.34082882, 18.25823751
26.41722055, 18.41115038
26.49227299, 18.56561261
26.56598630, 18.72160175
26.01464613, 19.48045653
25.84351297, 19.45855434
25.67341818, 19.43490672
25.50438305, 19.40950657
25.33643107, 19.38234404
25.16958480, 19.35341058
25.00386932, 19.32269440
24.83930969, 19.29018388
24.67593362, 19.25586404
24.51376955, 19.21971911
24.35284670, 19.18173239
24.19319750, 19.14188326
24.03485594, 19.10014921
23.87785848, 19.05650479
23.72224501, 19.01092033
23.56805814, 18.96336298
23.41534498, 18.91379443
23.26415756, 18.86217042
23.11455424, 18.80843912
22.96660002, 18.75254072
22.82033801, 18.69444230
22.67461499, 18.63556640
22.52881867, 18.57666087
22.38294780, 18.51772523
22.23700110, 18.45875895
22.09097727, 18.39976151
21.94487495, 18.34073235
21.79869279, 18.28167094
21.65242938, 18.22257670
21.50608329, 18.16344906
20.80805685, 18.73565505
20.80805685, 18.73565505
20.31194924, 19.48966952
20.38605034, 19.62903338
20.46010957, 19.76831850
20.53412766, 19.90752625
20.60810532, 20.04665796
20.68204324, 20.18571493
20.75594211, 20.32469845
20.82980258, 20.46360976
20.90362530, 20.60245008
20.97741091, 20.74122059
21.05047963, 20.88060841
21.12153726, 21.02190914
21.19061205, 21.16507645
21.25775667, 21.31003945
21.32301658, 21.45673470
21.38643035, 21.60510581
21.44803115, 21.75510192
21.50784722, 21.90667724
21.56590387, 22.05978899
21.62222262, 22.21439823
21.67682229, 22.37046882
21.72972001, 22.52796636
21.78092932, 22.68686003
21.83046294, 22.84711990
21.87833287, 23.00871685
21.92454804, 23.17162474
21.96911757, 23.33581739
22.01204758, 23.50127148
22.05334544, 23.66796263
22.09301597, 23.83586889
21.39594913, 24.46351081
21.23310936, 24.40650665
21.07164816, 24.34801108
20.91158784, 24.28802161
20.75295343, 24.22653347
20.59576875, 24.16354298
20.44006081, 24.09904384
20.28585652, 24.03302988
20.13318610, 23.96549222
19.98208066, 23.89642133
19.83257224, 23.82580698
19.68469686, 23.75363571
19.53849244, 23.67989259
19.39399993, 23.60456029
19.25126454, 23.52761811
19.11033475, 23.44904275
18.97126461, 23.36880654
18.83411424, 23.28687701
18.69895148, 23.20321559
18.56585234, 23.11777729
18.43486585, 23.03053888
18.30456822, 22.94265203
18.17420504, 22.85472098
18.04377521, 22.76674496
17.91327757, 22.67872321
17.78271097, 22.59065494
17.65207419, 22.50253934
17.52136602, 22.41437558
17.39058520, 22.32616282
17.25973044, 22.23790019
16.45798925, 22.65247425
16.45798925, 22.65247425
15.81595436, 23.28686513
15.85946079, 23.43859005
15.90294264, 23.59022923
15.94640034, 23.74178418
15.98983431, 23.89325635
16.03324494, 24.04464715
16.07663264, 24.19595799
16.11999780, 24.34719021
16.16334079, 24.49834514
16.20666199, 24.64942407
16.24915363, 24.80095777
16.28928041, 24.95394445
16.32707959, 25.10834467
16.36261744, 25.26410003
16.39595161, 25.42115794
16.42713154, 25.57947125
16.45620028, 25.73899711
16.48319495, 25.89969661
16.50814920, 26.06153315
16.53109218, 26.22447314
16.55204981, 26.38848512
16.57104601, 26.55353901
16.58810042, 26.71960749
16.60323172, 26.88666392
16.61645767, 27.05468230
16.62779249, 27.22363894
16.63725048, 27.39351011
16.64484254, 27.56427429
16.65058090, 27.73590914
16.65447486, 27.90839421
15.84214651, 28.37739230
15.69471702, 28.28777753
15.54894604, 28.19699057
15.40485594, 28.10503360
15.26247217, 28.01190717
15.12181881, 27.91761264
14.98292358, 27.82214946
14.84581410, 27.72551719
14.71052177, 27.62771343
14.57707899, 27.52873532
14.44551924, 27.42857951
14.31588054, 27.32724034
14.18820309, 27.22471107
14.06253056, 27.12098328
13.93891145, 27.01604611
13.81739805, 26.90988687
13.69804898, 26.80248970
13.58092978, 26.69383536
13.46611484, 26.58390023
13.35368785, 26.47265609
13.24370162, 26.36009043
13.13452400, 26.24703372
13.02529147, 26.13392015
12.91600308, 26.02074873
12.80665788, 25.90751848
12.69725489, 25.79422839
12.58779311, 25.68087741
12.47827150, 25.56746449
12.36868902, 25.45398853
12.25904458, 25.34044842
11.38862856, 25.57927167
11.38862856, 25.57927167
10.62872640, 26.06631303
10.63973673, 26.22376789
10.65074084, 26.38113378
10.66173884, 26.53841225
10.67273083, 26.69560482
10.68371692, 26.85271295
10.69469720, 27.00973809
10.70567178, 27.16668165
10.71664075, 27.32354499
10.72760421, 27.48032947
10.73766167, 27.63738631
10.74510387, 27.79537269
10.74997544, 27.95425778
10.75235334, 28.11399825
10.75230490, 28.27455463
10.74988829, 28.43589108
10.74515451, 28.59797466
10.73814798, 28.76077499
10.72890921, 28.92426329
10.71747371, 29.08841277
10.70387335, 29.25319803
10.68813781, 29.41859463
10.67029196, 29.58457993
10.65035962, 29.75113174
10.62836357, 29.91822835
10.60432263, 30.08584952
10.57825575, 30.25397503
10.55017803, 30.42258608
10.52010610, 30.59166337
10.48805331, 30.76118882
9.59596609, 31.05104563
9.47039025, 30.93273684
9.34668039, 30.81362630
9.22485793, 30.69372079
9.10494766, 30.57302615
8.98697285, 30.45154871
8.87096073, 30.32929369
8.75693839, 30.20626640
8.64493707, 30.08247103
8.53498904, 29.95791151
8.42712775, 29.83259154
8.32139157, 29.70651347
8.21782121, 29.57967908
8.11646114, 29.45208921
8.01736107, 29.32374331
7.92057478, 29.19463984
7.82616290, 29.06477549
7.73419354, 28.93414506
7.64474438, 28.80274090
7.55790315, 28.67055284
7.47372409, 28.53757958
7.39043808, 28.40429413
7.30711018, 28.27094163
7.22373966, 28.13752095
7.14032581, 28.00403091
7.05686787, 27.87047032
6.97336508, 27.73683795
6.88981665, 27.60313255
6.80622179, 27.46935283
6.72257967, 27.33549748
5.82153018, 27.38813222
5.82153018, 27.38813222
4.97697211, 27.70653801
4.95500513, 27.86284128
4.93305057, 28.01905623
4.91110820, 28.17518440
4.88917782, 28.33122730
4.86725922, 28.48718638
4.84535220, 28.64306307
4.82345656, 28.79885878
4.80157210, 28.95457486
4.77969866, 29.11021265
4.75688239, 29.26592848
4.73131474, 29.42200980
4.70304578, 29.57843573
4.67215981, 29.73517988
4.63873089, 29.89221765
4.60282335, 30.04952607
4.56449395, 30.20708352
4.52379243, 30.36486954
4.48076442, 30.52286438
4.43545022, 30.68104922
4.38788629, 30.83940586
4.33810671, 30.99791655
4.28614056, 31.15656430
4.23201571, 31.31533239
4.17575900, 31.47420431
4.11739301, 31.63316416
4.05694049, 31.79219612
3.99442013, 31.95128492
3.92985221, 32.11041516
3.86325351, 32.26957193
2.93039593, 32.36761931
" style="stroke:blue;stroke-width:0.2%;fill:none" />
<circle cx="0" cy="0" r="38.50000000" style="stroke:blue;stroke-width:0.2%;fill:none"/>
<circle cx="0" cy="0" r="2.00000000" style="stroke:green;stroke-width:0.2%;fill:none"/>
<polyline points="
6.35462971, 14.68396000
6.20146679, 14.58644266
6.05175447, 14.48676181
5.90556055, 14.38495236
5.76296006, 14.28104658
5.62403155, 14.17507563
5.48886598, 14.06706616
5.35755640, 13.95704444
5.23020870, 13.84503221
5.10694671, 13.73104494
4.98790856, 13.61509340
4.87325098, 13.49718211
4.76316568, 13.37730364
4.65788467, 13.25543701
4.55769877, 13.13154149
4.46298901, 13.00554609
4.37428396, 12.87733046
4.29238515, 12.74668309
4.21872263, 12.61318276
4.16647933, 12.47248772
4.13516691, 12.32478781
4.09772594, 12.17912732
4.05349909, 12.03574448
4.00276709, 11.89455151
3.94290946, 11.75642229
3.87524965, 11.62088379
3.79435958, 11.48968387
3.69931807, 11.36299018
3.58513022, 11.24219023
3.43322193, 11.13263164
2.55899070, 11.21167100
2.55899070, 11.21167100
1.73704167, 11.51977371
1.64771273, 11.68439313
1.59724616, 11.84277437
1.56658706, 11.99815840
1.55063313, 12.15146234
1.54848169, 12.30293479
1.55448386, 12.45335617
1.57003723, 12.60257843
1.59240170, 12.75095121
1.62186827, 12.89843182
1.65774134, 13.04509079
1.67171704, 13.19452016
1.66327302, 13.34676076
1.64617052, 13.50000454
1.62188070, 13.65401051
1.59121751, 13.80862147
1.55470939, 13.96371651
1.51273042, 14.11919426
1.46556031, 14.27496525
1.41341719, 14.43094771
1.35647701, 14.58706516
1.29487902, 14.74324552
1.22874299, 14.89941914
1.15817378, 15.05551837
1.08325736, 15.21147769
1.00406617, 15.36723303
0.92067059, 15.52272095
0.83312789, 15.67787925
0.74149165, 15.83264634
0.64580781, 15.98696132
-0.64580781, 15.98696132
-0.74149165, 15.83264634
-0.83312789, 15.67787925
-0.92067059, 15.52272095
-1.00406617, 15.36723303
-1.08325736, 15.21147769
-1.15817378, 15.05551837
-1.22874299, 14.89941914
-1.29487902, 14.74324552
-1.35647701, 14.58706516
-1.41341719, 14.43094771
-1.46556031, 14.27496525
-1.51273042, 14.11919426
-1.55470939, 13.96371651
-1.59121751, 13.80862147
-1.62188070, 13.65401051
-1.64617052, 13.50000454
-1.66327302, 13.34676076
-1.67171704, 13.19452016
-1.65774134, 13.04509079
-1.62186827, 12.89843182
-1.59240170, 12.75095121
-1.57003723, 12.60257843
-1.55448386, 12.45335617
-1.54848169, 12.30293479
-1.55063313, 12.15146234
-1.56658706, 11.99815840
-1.59724616, 11.84277437
-1.64771273, 11.68439313
-1.73704167, 11.51977371
-2.55899070, 11.21167100
-2.55899070, 11.21167100
-3.43322193, 11.13263164
-3.58513022, 11.24219023
-3.69931807, 11.36299018
-3.79435958, 11.48968387
-3.87524965, 11.62088379
-3.94290946, 11.75642229
-4.00276709, 11.89455151
-4.05349909, 12.03574448
-4.09772594, 12.17912732
-4.13516691, 12.32478781
-4.16647933, 12.47248772
-4.21872263, 12.61318276
-4.29238515, 12.74668309
-4.37428396, 12.87733046
-4.46298901, 13.00554609
-4.55769877, 13.13154149
-4.65788467, 13.25543701
-4.76316568, 13.37730364
-4.87325098, 13.49718211
-4.98790856, 13.61509340
-5.10694671, 13.73104494
-5.23020870, 13.84503221
-5.35755640, 13.95704444
-5.48886598, 14.06706616
-5.62403155, 14.17507563
-5.76296006, 14.28104658
-5.90556055, 14.38495236
-6.05175447, 14.48676181
-6.20146679, 14.58644266
-6.35462971, 14.68396000
-7.51833518, 14.12354899
-7.53758858, 13.94300034
-7.55299906, 13.76380054
-7.56455164, 13.58602438
-7.57222478, 13.40975062
-7.57599387, 13.23506014
-7.57582303, 13.06204063
-7.57167477, 12.89078125
-7.56350007, 12.72137833
-7.55123384, 12.55393833
-7.53479834, 12.38857594
-7.51409942, 12.22541655
-7.48901172, 12.06460540
-7.45937420, 11.90631079
-7.42497366, 11.75073470
-7.38551707, 11.59813078
-7.34058075, 11.44883724
-7.28949959, 11.30334887
-7.23105267, 11.16252110
-7.15362602, 11.03395372
-7.05767256, 10.91738330
-6.96713467, 10.79729293
-6.88260844, 10.67331725
-6.80385022, 10.54562099
-6.73317707, 10.41270026
-6.66939401, 10.27529481
-6.61725192, 10.13025059
-6.57745621, 9.97695193
-6.55420597, 9.81235874
-6.56326288, 9.62528339
-7.17013262, 8.99106213
-7.17013262, 8.99106213
-7.92349385, 8.54053541
-8.10789419, 8.57333376
-8.26318702, 8.63262650
-8.40378678, 8.70553661
-8.53359173, 8.78864677
-8.65335907, 8.88140624
-8.76722095, 8.97988513
-8.87419023, 9.08508380
-8.97624872, 9.19507797
-9.07318160, 9.31006851
-9.16547770, 9.42955558
-9.27359258, 9.53364991
-9.39788384, 9.62196858
-9.52835788, 9.70414324
-9.66390905, 9.78117385
-9.80390695, 9.85359876
-9.94792758, 9.92175574
-10.09565844, 9.98587406
-10.24685518, 10.04611661
-10.40131788, 10.10260295
-10.55887704, 10.15542296
-10.71938948, 10.20464057
-10.88272607, 10.25030601
-11.04876855, 10.29245906
-11.21741208, 10.33112609
-11.38856141, 10.36632379
-11.56212305, 10.39806764
-11.73801267, 10.42636363
-11.91614872, 10.45121522
-12.09645492, 10.47262041
-12.90176411, 9.46279466
-12.84077370, 9.29177221
-12.77690618, 9.12363241
-12.71018052, 8.95844915
-12.64061147, 8.79630273
-12.56821194, 8.63727670
-12.49298766, 8.48146563
-12.41494355, 8.32896612
-12.33407723, 8.17988623
-12.25037624, 8.03435012
-12.16382033, 7.89249486
-12.07437904, 7.75447425
-11.98200246, 7.62047355
-11.88661851, 7.49071428
-11.78812277, 7.36547090
-11.68636125, 7.24509909
-11.58109899, 7.13008740
-11.47195141, 7.02117019
-11.35818967, 6.91964792
-11.23264738, 6.83740687
-11.09561829, 6.77401320
-10.96194121, 6.70509843
-10.83199468, 6.63007476
-10.70563065, 6.54919631
-10.58428419, 6.46010280
-10.46719966, 6.36397921
-10.35728893, 6.25592248
-10.25492044, 6.13507187
-10.16255839, 5.99686643
-10.08954943, 5.82438771
-10.36114189, 4.98966320
-10.36114189, 4.98966320
-10.84442069, 4.25688146
-11.02479033, 4.20642345
-11.19043048, 4.19246533
-11.34874101, 4.19715112
-11.50175138, 4.21571053
-11.64990484, 4.24731883
-11.79521923, 4.28664242
-11.93723923, 4.33501092
-12.07691543, 4.38983072
-12.21414146, 4.45137602
-12.34914087, 4.51898437
-12.49171385, 4.56586084
-12.64201643, 4.59150526
-12.79522373, 4.60893150
-12.95077344, 4.61952024
-13.10833118, 4.62403001
-13.26766149, 4.62294912
-13.42858229, 4.61661972
-13.59094411, 4.60529457
-13.75461870, 4.58916815
-13.91949235, 4.56839499
-14.08546378, 4.54309478
-14.25243845, 4.51336883
-14.42032708, 4.47930429
-14.58904664, 4.44097039
-14.75851858, 4.39842352
-14.92866535, 4.35171817
-15.09941359, 4.30089632
-15.27069133, 4.24599650
-15.44242897, 4.18704998
-15.72984051, 2.92781786
-15.60068619, 2.80019471
-15.47019042, 2.67641705
-15.33840235, 2.55654326
-15.20537010, 2.44063926
-15.07114157, 2.32877473
-14.93576296, 2.22103241
-14.79928058, 2.11749716
-14.66173921, 2.01826740
-14.52318147, 1.92346040
-14.38364859, 1.83320842
-14.24317988, 1.74766327
-14.10181073, 1.66701351
-13.95957233, 1.59148998
-13.81648967, 1.52138530
-13.67257833, 1.45708672
-13.52783861, 1.39913634
-13.38224264, 1.34836268
-13.23569799, 1.30625365
-13.08690525, 1.28662778
-12.93594081, 1.28896675
-12.78560093, 1.28487700
-12.63597160, 1.27366469
-12.48702970, 1.25562303
-12.33904409, 1.22800280
-12.19184811, 1.19219951
-12.04593791, 1.14253224
-11.90127197, 1.07806562
-11.75809155, 0.99362121
-11.61747704, 0.86990066
-11.50000000, 0.00000031
-11.50000000, 0.00000031
-11.61747709, -0.86990004
-11.75809160, -0.99362058
-11.90127203, -1.07806498
-12.04593797, -1.14253160
-12.19184817, -1.19219885
-12.33904416, -1.22800214
-12.48702977, -1.25562236
-12.63597167, -1.27366401
-12.78560100, -1.28487631
-12.93594088, -1.28896605
-13.08690532, -1.28662708
-13.23569806, -1.30625294
-13.38224271, -1.34836196
-13.52783869, -1.39913562
-13.67257841, -1.45708598
-13.81648975, -1.52138456
-13.95957242, -1.59148923
-14.10181082, -1.66701275
-14.24317997, -1.74766251
-14.38364869, -1.83320765
-14.52318158, -1.92345962
-14.66173932, -2.01826662
-14.79928070, -2.11749637
-14.93576307, -2.22103161
-15.07114170, -2.32877392
-15.20537023, -2.44063845
-15.33840248, -2.55654243
-15.47019057, -2.67641622
-15.60068634, -2.80019387
-15.72984067, -2.92781702
-15.44242919, -4.18704915
-15.27069156, -4.24599569
-15.09941382, -4.30089551
-14.92866558, -4.35171737
-14.75851881, -4.39842273
-14.58904688, -4.44096961
-14.42032732, -4.47930351
-14.25243869, -4.51336806
-14.08546402, -4.54309403
-13.91949259, -4.56839424
-13.75461895, -4.58916741
-13.59094436, -4.60529384
-13.42858254, -4.61661900
-13.26766174, -4.62294841
-13.10833143, -4.62402931
-12.95077369, -4.61951954
-12.79522398, -4.60893082
-12.64201668, -4.59150458
-12.49171409, -4.56586017
-12.34914111, -4.51898371
-12.21414170, -4.45137536
-12.07691566, -4.38983007
-11.93723946, -4.33501028
-11.79521946, -4.28664179
-11.64990507, -4.24731821
-11.50175160, -4.21570992
-11.34874123, -4.19715051
-11.19043071, -4.19246473
-11.02479055, -4.20642286
-10.84442092, -4.25688088
-10.36114215, -4.98966264
-10.36114215, -4.98966264
-10.08954975, -5.82438717
-10.16255871, -5.99686588
-10.25492077, -6.13507132
-10.35728926, -6.25592193
-10.46720000, -6.36397864
-10.58428454, -6.46010223
-10.70563100, -6.54919574
-10.83199503, -6.63007418
-10.96194157, -6.70509784
-11.09561865, -6.77401260
-11.23264775, -6.83740627
-11.35819005, -6.91964731
-11.47195179, -7.02116957
-11.58109937, -7.13008678
-11.68636163, -7.24509846
-11.78812317, -7.36547027
-11.88661891, -7.49071364
-11.98200287, -7.62047291
-12.07437945, -7.75447360
-12.16382075, -7.89249420
-12.25037667, -8.03434947
-12.33407767, -8.17988557
-12.41494400, -8.32896546
-12.49298812, -8.48146497
-12.56821240, -8.63727602
-12.64061194, -8.79630206
-12.71018100, -8.95844847
-12.77690667, -9.12363172
-12.84077419, -9.29177153
-12.90176462, -9.46279397
-12.09645549, -10.47261976
-11.91614928, -10.45121459
-11.73801323, -10.42636300
-11.56212360, -10.39806702
-11.38856197, -10.36632318
-11.21741263, -10.33112549
-11.04876910, -10.29245847
-10.88272662, -10.25030542
-10.71939003, -10.20464000
-10.55887759, -10.15542240
-10.40131842, -10.10260239
-10.24685572, -10.04611606
-10.09565897, -9.98587352
-9.94792811, -9.92175520
-9.80390748, -9.85359823
-9.66390957, -9.78117333
-9.52835840, -9.70414273
-9.39788435, -9.62196808
-9.27359309, -9.53364941
-9.16547821, -9.42955509
-9.07318210, -9.31006802
-8.97624922, -9.19507749
-8.87419072, -9.08508333
-8.76722143, -8.97988466
-8.65335954, -8.88140578
-8.53359221, -8.78864632
-8.40378725, -8.70553616
-8.26318748, -8.63262606
-8.10789465, -8.57333333
-7.92349431, -8.54053499
-7.17013310, -8.99106175
-7.17013310, -8.99106175
-6.56326340, -9.62528304
-6.55420650, -9.81235839
-6.57745675, -9.97695158
-6.61725246, -10.13025024
-6.66939456, -10.27529446
-6.73317762, -10.41269989
-6.80385079, -10.54562063
-6.88260901, -10.67331688
-6.96713525, -10.79729255
-7.05767314, -10.91738292
-7.15362661, -11.03395334
-7.23105326, -11.16252071
-7.28950020, -11.30334848
-7.34058136, -11.44883685
-7.38551769, -11.59813039
-7.42497429, -11.75073431
-7.45937483, -11.90631039
-7.48901237, -12.06460500
-7.51410008, -12.22541615
-7.53479901, -12.38857554
-7.55123451, -12.55393792
-7.56350076, -12.72137792
-7.57167546, -12.89078084
-7.57582373, -13.06204023
-7.57599458, -13.23505973
-7.57222550, -13.40975022
-7.56455237, -13.58602397
-7.55299980, -13.76380013
-7.53758932, -13.94299994
-7.51833594, -14.12354859
-6.35463050, -14.68395966
-6.20146758, -14.58644233
-6.05175524, -14.48676149
-5.90556133, -14.38495205
-5.76296083, -14.28104627
-5.62403231, -14.17507533
-5.48886673, -14.06706586
-5.35755715, -13.95704415
-5.23020945, -13.84503193
-5.10694745, -13.73104467
-4.98790929, -13.61509313
-4.87325170, -13.49718185
-4.76316640, -13.37730339
-4.65788538, -13.25543676
-4.55769948, -13.13154124
-4.46298971, -13.00554585
-4.37428465, -12.87733023
-4.29238584, -12.74668286
-4.21872331, -12.61318253
-4.16648000, -12.47248750
-4.13516757, -12.32478759
-4.09772659, -12.17912710
-4.05349974, -12.03574426
-4.00276772, -11.89455130
-3.94291009, -11.75642207
-3.87525027, -11.62088359
-3.79436019, -11.48968367
-3.69931868, -11.36298998
-3.58513083, -11.24219004
-3.43322253, -11.13263145
-2.55899130, -11.21167086
-2.55899130, -11.21167086
-1.73704229, -11.51977361
-1.64771335, -11.68439304
-1.59724679, -11.84277428
-1.56658770, -11.99815832
-1.55063378, -12.15146225
-1.54848235, -12.30293471
-1.55448453, -12.45335609
-1.57003791, -12.60257835
-1.59240239, -12.75095113
-1.62186896, -12.89843173
-1.65774204, -13.04509070
-1.67171775, -13.19452007
-1.66327374, -13.34676067
-1.64617124, -13.50000445
-1.62188144, -13.65401042
-1.59121825, -13.80862138
-1.55471014, -13.96371642
-1.51273118, -14.11919418
-1.46556108, -14.27496517
-1.41341797, -14.43094764
-1.35647779, -14.58706509
-1.29487981, -14.74324545
-1.22874379, -14.89941907
-1.15817459, -15.05551831
-1.08325818, -15.21147763
-1.00406699, -15.36723298
-0.92067143, -15.52272090
-0.83312873, -15.67787921
-0.74149249, -15.83264630
-0.64580867, -15.98696129
0.64580696, -15.98696136
0.74149080, -15.83264638
0.83312705, -15.67787930
0.92066976, -15.52272100
1.00406534, -15.36723309
1.08325655, -15.21147775
1.15817297, -15.05551844
1.22874219, -14.89941920
1.29487823, -14.74324559
1.35647623, -14.58706524
1.41341642, -14.43094779
1.46555955, -14.27496533
1.51272967, -14.11919435
1.55470864, -13.96371659
1.59121677, -13.80862155
1.62187997, -13.65401060
1.64616980, -13.50000463
1.66327231, -13.34676085
1.67171633, -13.19452025
1.65774064, -13.04509088
1.62186758, -12.89843190
1.59240102, -12.75095130
1.57003656, -12.60257851
1.55448319, -12.45335625
1.54848103, -12.30293487
1.55063248, -12.15146242
1.56658641, -11.99815848
1.59724553, -11.84277445
1.64771210, -11.68439322
1.73704106, -11.51977380
2.55899010, -11.21167114
2.55899010, -11.21167114
3.43322134, -11.13263182
3.58512962, -11.24219043
3.69931746, -11.36299038
3.79435896, -11.48968407
3.87524903, -11.62088400
3.94290883, -11.75642250
4.00276645, -11.89455173
4.05349845, -12.03574469
4.09772528, -12.17912753
4.13516625, -12.32478803
4.16647866, -12.47248795
4.21872196, -12.61318299
4.29238447, -12.74668332
4.37428327, -12.87733070
4.46298831, -13.00554633
4.55769807, -13.13154173
4.65788396, -13.25543726
4.76316496, -13.37730390
4.87325026, -13.49718237
4.98790783, -13.61509366
5.10694598, -13.73104522
5.23020796, -13.84503249
5.35755565, -13.95704472
5.48886522, -14.06706645
5.62403079, -14.17507593
5.76295930, -14.28104689
5.90555978, -14.38495268
6.05175369, -14.48676214
6.20146601, -14.58644300
6.35462892, -14.68396034
7.51833442, -14.12354939
7.53758783, -13.94300074
7.55299832, -13.76380094
7.56455092, -13.58602478
7.57222407, -13.40975103
7.57599316, -13.23506054
7.57582233, -13.06204104
7.57167408, -12.89078165
7.56349939, -12.72137874
7.55123317, -12.55393873
7.53479768, -12.38857635
7.51409877, -12.22541695
7.48901108, -12.06460580
7.45937356, -11.90631119
7.42497303, -11.75073510
7.38551645, -11.59813118
7.34058014, -11.44883764
7.28949899, -11.30334926
7.23105207, -11.16252149
7.15362543, -11.03395410
7.05767197, -10.91738368
6.96713409, -10.79729330
6.88260787, -10.67331762
6.80384966, -10.54562136
6.73317651, -10.41270062
6.66939346, -10.27529517
6.61725137, -10.13025095
6.57745568, -9.97695228
6.55420545, -9.81235909
6.56326237, -9.62528374
7.17013214, -8.99106251
7.17013214, -8.99106251
7.92349340, -8.54053584
8.10789373, -8.57333420
8.26318655, -8.63262695
8.40378632, -8.70553706
8.53359126, -8.78864723
8.65335859, -8.88140671
8.76722046, -8.97988560
8.87418975, -9.08508428
8.97624823, -9.19507845
9.07318110, -9.31006899
9.16547720, -9.42955607
9.27359207, -9.53365041
9.39788332, -9.62196908
9.52835736, -9.70414375
9.66390852, -9.78117437
9.80390642, -9.85359928
9.94792705, -9.92175627
10.09565790, -9.98587460
10.24685464, -10.04611716
10.40131734, -10.10260350
10.55887650, -10.15542353
10.71938893, -10.20464114
10.88272552, -10.25030659
11.04876800, -10.29245965
11.21741152, -10.33112669
11.38856085, -10.36632440
11.56212249, -10.39806826
11.73801212, -10.42636425
11.91614816, -10.45121586
12.09645436, -10.47262106
12.90176360, -9.46279536
12.84077320, -9.29177290
12.77690570, -9.12363309
12.71018004, -8.95844983
12.64061099, -8.79630341
12.56821147, -8.63727737
12.49298721, -8.48146630
12.41494310, -8.32896679
12.33407680, -8.17988689
12.25037581, -8.03435078
12.16381990, -7.89249551
12.07437862, -7.75447490
11.98200205, -7.62047419
11.88661811, -7.49071491
11.78812238, -7.36547153
11.68636086, -7.24509972
11.58109860, -7.13008802
11.47195104, -7.02117080
11.35818930, -6.91964853
11.23264702, -6.83740747
11.09561793, -6.77401379
10.96194085, -6.70509901
10.83199432, -6.63007534
10.70563030, -6.54919689
10.58428384, -6.46010337
10.46719932, -6.36397977
10.35728859, -6.25592304
10.25492011, -6.13507242
10.16255807, -5.99686697
10.08954912, -5.82438825
10.36114162, -4.98966375
10.36114162, -4.98966375
10.84442047, -4.25688205
11.02479010, -4.20642404
11.19043026, -4.19246593
11.34874078, -4.19715173
11.50175115, -4.21571115
11.64990461, -4.24731945
11.79521900, -4.28664305
11.93723899, -4.33501156
12.07691519, -4.38983137
12.21414122, -4.45137667
12.34914063, -4.51898504
12.49171360, -4.56586151
12.64201619, -4.59150593
12.79522349, -4.60893219
12.95077320, -4.61952093
13.10833094, -4.62403072
13.26766124, -4.62294983
13.42858205, -4.61662044
13.59094387, -4.60529530
13.75461846, -4.58916889
13.91949210, -4.56839573
14.08546353, -4.54309554
14.25243821, -4.51336959
14.42032684, -4.47930506
14.58904641, -4.44097118
14.75851834, -4.39842431
14.92866511, -4.35171897
15.09941336, -4.30089713
15.27069110, -4.24599732
15.44242874, -4.18705081
15.72984036, -2.92781871
15.60068604, -2.80019554
15.47019028, -2.67641788
15.33840221, -2.55654408
15.20536997, -2.44064008
15.07114145, -2.32877554
14.93576284, -2.22103321
14.79928047, -2.11749796
14.66173910, -2.01826819
14.52318137, -1.92346117
14.38364850, -1.83320919
14.24317979, -1.74766403
14.10181064, -1.66701426
13.95957224, -1.59149073
13.81648959, -1.52138604
13.67257826, -1.45708745
13.52783854, -1.39913707
13.38224257, -1.34836340
13.23569792, -1.30625436
13.08690518, -1.28662848
12.93594074, -1.28896744
12.78560086, -1.28487768
12.63597153, -1.27366537
12.48702964, -1.25562370
12.33904403, -1.22800346
12.19184805, -1.19220016
12.04593785, -1.14253289
11.90127191, -1.07806626
11.75809150, -0.99362184
11.61747700, -0.86990128
11.50000000, -0.00000092
11.50000000, -0.00000092
11.61747714, 0.86989941
11.75809166, 0.99361995
11.90127209, 1.07806435
12.04593803, 1.14253095
12.19184824, 1.19219820
12.33904422, 1.22800148
12.48702984, 1.25562169
12.63597174, 1.27366334
12.78560107, 1.28487563
12.93594095, 1.28896536
13.08690539, 1.28662638
13.23569813, 1.30625223
13.38224278, 1.34836125
13.52783876, 1.39913489
13.67257849, 1.45708525
13.81648983, 1.52138382
13.95957250, 1.59148849
14.10181091, 1.66701199
14.24318007, 1.74766174
14.38364879, 1.83320688
14.52318168, 1.92345884
14.66173943, 2.01826583
14.79928081, 2.11749558
14.93576319, 2.22103081
15.07114182, 2.32877312
15.20537036, 2.44063763
15.33840262, 2.55654161
15.47019071, 2.67641539
15.60068649, 2.80019303
15.72984083, 2.92781618
15.44242942, 4.18704833
15.27069178, 4.24599487
15.09941405, 4.30089470
14.92866581, 4.35171657
14.75851905, 4.39842194
14.58904712, 4.44096883
14.42032756, 4.47930274
14.25243894, 4.51336730
14.08546426, 4.54309327
13.91949284, 4.56839349
13.75461920, 4.58916668
13.59094461, 4.60529311
13.42858279, 4.61661828
13.26766199, 4.62294770
13.10833168, 4.62402861
12.95077394, 4.61951885
12.79522423, 4.60893013
12.64201692, 4.59150390
12.49171433, 4.56585950
12.34914135, 4.51898305
12.21414193, 4.45137471
12.07691590, 4.38982942
11.93723969, 4.33500964
11.79521969, 4.28664116
11.64990529, 4.24731758
11.50175183, 4.21570930
11.34874146, 4.19714990
11.19043093, 4.19246413
11.02479078, 4.20642227
10.84442115, 4.25688030
10.36114242, 4.98966209
10.36114242, 4.98966209
10.08955006, 5.82438663
10.16255903, 5.99686534
10.25492110, 6.13507077
10.35728960, 6.25592137
10.46720034, 6.36397808
10.58428488, 6.46010167
10.70563135, 6.54919517
10.83199539, 6.63007360
10.96194193, 6.70509725
11.09561902, 6.77401201
11.23264812, 6.83740567
11.35819042, 6.91964670
11.47195217, 7.02116896
11.58109975, 7.13008615
11.68636202, 7.24509784
11.78812356, 7.36546963
11.88661931, 7.49071300
11.98200327, 7.62047226
12.07437987, 7.75447295
12.16382117, 7.89249355
12.25037710, 8.03434881
12.33407811, 8.17988491
12.41494444, 8.32896479
12.49298857, 8.48146430
12.56821286, 8.63727535
12.64061241, 8.79630138
12.71018148, 8.95844779
12.77690716, 9.12363104
12.84077469, 9.29177084
12.90176512, 9.46279328
12.09645605, 10.47261911
11.91614984, 10.45121395
11.73801379, 10.42636237
11.56212416, 10.39806640
11.38856252, 10.36632257
11.21741318, 10.33112489
11.04876965, 10.29245788
10.88272717, 10.25030484
10.71939057, 10.20463942
10.55887813, 10.15542183
10.40131897, 10.10260183
10.24685626, 10.04611551
10.09565951, 9.98587298
9.94792864, 9.92175467
9.80390801, 9.85359771
9.66391010, 9.78117281
9.52835892, 9.70414222
9.39788487, 9.62196757
9.27359360, 9.53364892
9.16547871, 9.42955460
9.07318260, 9.31006754
8.97624971, 9.19507701
8.87419121, 9.08508285
8.76722191, 8.97988419
8.65336002, 8.88140532
8.53359268, 8.78864586
8.40378772, 8.70553571
8.26318794, 8.63262562
8.10789511, 8.57333289
7.92349477, 8.54053456
7.17013358, 8.99106136
7.17013358, 8.99106136
6.56326392, 9.62528268
6.55420703, 9.81235804
6.57745728, 9.97695122
6.61725300, 10.13024988
6.66939511, 10.27529410
6.73317818, 10.41269953
6.80385135, 10.54562026
6.88260958, 10.67331651
6.96713582, 10.79729218
7.05767373, 10.91738254
7.15362721, 11.03395295
7.23105386, 11.16252033
7.28950080, 11.30334809
7.34058198, 11.44883646
7.38551831, 11.59812999
7.42497492, 11.75073391
7.45937547, 11.90630999
7.48901302, 12.06460459
7.51410073, 12.22541575
7.53479967, 12.38857514
7.55123518, 12.55393752
7.56350144, 12.72137752
7.57167615, 12.89078044
7.57582443, 13.06203982
7.57599529, 13.23505932
7.57222622, 13.40974981
7.56455310, 13.58602357
7.55300054, 13.76379973
7.53759007, 13.94299953
7.51833669, 14.12354819
6.35463128, 14.68395932
" style="stroke:green;stroke-width:0.2%;fill:none" />
<polyline points="
3.32141711, 31.43229497
3.15028747, 31.33264104
2.98485637, 31.22933543
2.82526153, 31.12252143
2.67163711, 31.01234460
2.52413195, 30.89894701
2.38290474, 30.78246919
2.24813322, 30.66304779
2.12001130, 30.54081683
1.99876293, 30.41590439
1.88465128, 30.28843107
1.77799869, 30.15850603
1.67921482, 30.02622187
1.58884654, 29.89164537
1.50769004, 29.75479663
1.43702495, 29.61560630
1.42485664, 29.46523835
1.44174308, 29.30916390
1.45030510, 29.15448217
1.45185936, 29.00104309
1.44637038, 28.84894245
1.43160834, 28.69873104
1.40932292, 28.55009992
1.37685012, 28.40365394
1.33344397, 28.25954688
1.28120295, 28.11727219
1.21016526, 27.97875406
1.12445120, 27.84278269
1.01081806, 27.71123864
0.85454700, 27.58500219
0.00000000, 27.50000000
0.00000000, 27.50000000
-0.85454700, 27.58500219
-1.01081806, 27.71123864
-1.12445120, 27.84278269
-1.21016526, 27.97875406
-1.28120295, 28.11727219
-1.33344397, 28.25954688
-1.37685012, 28.40365394
-1.40932292, 28.55009992
-1.43160834, 28.69873104
-1.44637038, 28.84894245
-1.45185936, 29.00104309
-1.45030510, 29.15448217
-1.44174308, 29.30916390
-1.42485664, 29.46523835
-1.43702495, 29.61560630
-1.50769004, 29.75479663
-1.58884654, 29.89164537
-1.67921482, 30.02622187
-1.77799869, 30.15850603
-1.88465128, 30.28843107
-1.99876293, 30.41590439
-2.12001130, 30.54081683
-2.24813322, 30.66304779
-2.38290474, 30.78246919
-2.52413195, 30.89894701
-2.67163711, 31.01234460
-2.82526153, 31.12252143
-2.98485637, 31.22933543
-3.15028747, 31.33264104
-3.32141711, 31.43229497
-4.32104306, 31.01823635
-4.37158402, 30.82676346
-4.41551337, 30.63673791
-4.45283506, 30.44835841
-4.48355715, 30.26182276
-4.50767485, 30.07733666
-4.52517531, 29.89511168
-4.53602949, 29.71537015
-4.54019503, 29.53834392
-4.53760415, 29.36428195
-4.52815602, 29.19345557
-4.51169992, 29.02616993
-4.48801164, 28.86278016
-4.45675170, 28.70372018
-4.41737134, 28.54956719
-4.36891668, 28.40117700
-4.27119478, 28.28624651
-4.14889297, 28.18782572
-4.03346221, 28.08450348
-3.92386537, 27.97710470
-3.82019527, 27.86567201
-3.72441810, 27.74901816
-3.63507820, 27.62816191
-3.55448699, 27.50164723
-3.48328070, 27.36905537
-3.41961728, 27.23151199
-3.37190141, 27.08333364
-3.33636413, 26.92657837
-3.32369920, 26.75321192
-3.34493688, 26.55344894
-3.88908724, 25.88908735
-3.88908724, 25.88908735
-4.55344885, 25.34493700
-4.75321184, 25.32369933
-4.92657828, 25.33636426
-5.08333355, 25.37190154
-5.23151189, 25.41961742
-5.36905528, 25.48328084
-5.50164713, 25.55448714
-5.62816181, 25.63507835
-5.74901806, 25.72441825
-5.86567191, 25.82019543
-5.97710459, 25.92386553
-6.08450337, 26.03346237
-6.18782561, 26.14889313
-6.28624639, 26.27119495
-6.40117688, 26.36891686
-6.54956708, 26.41737152
-6.70372006, 26.45675188
-6.86278004, 26.48801182
-7.02616981, 26.51170010
-7.19345545, 26.52815621
-7.36428182, 26.53760435
-7.53834380, 26.54019523
-7.71537002, 26.53602969
-7.89511156, 26.52517552
-8.07733654, 26.50767506
-8.26182264, 26.48355737
-8.44835830, 26.45283529
-8.63673779, 26.41551360
-8.82676334, 26.37158425
-9.01823624, 26.32104330
-9.43229488, 25.32141736
-9.33264096, 25.15028772
-9.22933535, 24.98485662
-9.12252136, 24.82526178
-9.01234453, 24.67163735
-8.89894694, 24.52413219
-8.78246912, 24.38290497
-8.66304773, 24.24813346
-8.54081677, 24.12001153
-8.41590434, 23.99876315
-8.28843102, 23.88465150
-8.15850598, 23.77799891
-8.02622183, 23.67921504
-7.89164533, 23.58884675
-7.75479659, 23.50769025
-7.61560626, 23.43702515
-7.46523831, 23.42485684
-7.30916386, 23.44174328
-7.15448213, 23.45030529
-7.00104305, 23.45185955
-6.84894241, 23.44637057
-6.69873100, 23.43160852
-6.55009988, 23.40932309
-6.40365390, 23.37685029
-6.25954685, 23.33344414
-6.11727215, 23.28120311
-5.97875402, 23.21016542
-5.84278266, 23.12445135
-5.71123862, 23.01081822
-5.58500216, 22.85454715
-5.50000000, 22.00000015
-5.50000000, 22.00000015
-5.58500221, 21.14545315
-5.71123867, 20.98918209
-5.84278272, 20.87554896
-5.97875409, 20.78983490
-6.11727222, 20.71879721
-6.25954692, 20.66655619
-6.40365397, 20.62315005
-6.55009995, 20.59067726
-6.69873108, 20.56839184
-6.84894249, 20.55362980
-7.00104313, 20.54814082
-7.15448221, 20.54969509
-7.30916394, 20.55825712
-7.46523838, 20.57514356
-7.61560634, 20.56297525
-7.75479667, 20.49231016
-7.89164541, 20.41115367
-8.02622192, 20.32078539
-8.15850608, 20.22200153
-8.28843112, 20.11534894
-8.41590445, 20.00123730
-8.54081689, 19.87998893
-8.66304785, 19.75186701
-8.78246925, 19.61709550
-8.89894708, 19.47586829
-9.01234467, 19.32836313
-9.12252151, 19.17473871
-9.22933551, 19.01514387
-9.33264113, 18.84971278
-9.43229506, 18.67858315
-9.01823647, 17.67895719
-8.82676358, 17.62841622
-8.63673803, 17.58448686
-8.44835853, 17.54716516
-8.26182288, 17.51644307
-8.07733678, 17.49232537
-7.89511180, 17.47482490
-7.71537027, 17.46397072
-7.53834404, 17.45980517
-7.36428207, 17.46239605
-7.19345569, 17.47184418
-7.02617005, 17.48830027
-6.86278028, 17.51198855
-6.70372030, 17.54324848
-6.54956731, 17.58262883
-6.40117712, 17.63108349
-6.28624662, 17.72880539
-6.18782583, 17.85110720
-6.08450359, 17.96653796
-5.97710481, 18.07613479
-5.86567211, 18.17980489
-5.74901826, 18.27558205
-5.62816201, 18.36492195
-5.50164732, 18.44551316
-5.36905546, 18.51671944
-5.23151208, 18.58038286
-5.08333373, 18.62809873
-4.92657846, 18.66363601
-4.75321201, 18.67630092
-4.55344903, 18.65506324
-3.88908745, 18.11091286
-3.88908745, 18.11091286
-3.34493713, 17.44655124
-3.32369946, 17.24678825
-3.33636439, 17.07342181
-3.37190168, 16.91666654
-3.41961756, 16.76848820
-3.48328099, 16.63094482
-3.55448729, 16.49835296
-3.63507850, 16.37183829
-3.72441841, 16.25098204
-3.82019558, 16.13432820
-3.92386569, 16.02289551
-4.03346253, 15.91549673
-4.14889330, 15.81217450
-4.27119512, 15.71375372
-4.36891703, 15.59882323
-4.41737169, 15.45043304
-4.45675206, 15.29628006
-4.48801200, 15.13722008
-4.51170029, 14.97383031
-4.52815640, 14.80654467
-4.53760454, 14.63571830
-4.54019544, 14.46165632
-4.53602990, 14.28463010
-4.52517574, 14.10488857
-4.50767528, 13.92266358
-4.48355759, 13.73817748
-4.45283552, 13.55164182
-4.41551383, 13.36326233
-4.37158449, 13.17323677
-4.32104354, 12.98176388
-3.32141761, 12.56770521
-3.15028797, 12.66735912
-2.98485687, 12.77066473
-2.82526202, 12.87747872
-2.67163759, 12.98765555
-2.52413243, 13.10105313
-2.38290521, 13.21753094
-2.24813369, 13.33695233
-2.12001175, 13.45918328
-1.99876338, 13.58409571
-1.88465172, 13.71156903
-1.77799913, 13.84149406
-1.67921525, 13.97377822
-1.58884696, 14.10835471
-1.50769046, 14.24520345
-1.43702536, 14.38439378
-1.42485704, 14.53476173
-1.44174347, 14.69083618
-1.45030548, 14.84551791
-1.45185974, 14.99895698
-1.44637075, 15.15105762
-1.43160870, 15.30126904
-1.40932327, 15.44990016
-1.37685047, 15.59634614
-1.33344431, 15.74045319
-1.28120328, 15.88272788
-1.21016558, 16.02124601
-1.12445151, 16.15721737
-1.01081837, 16.28876141
-0.85454730, 16.41499786
-0.00000029, 16.50000000
-0.00000029, 16.50000000
0.85454670, 16.41499777
1.01081776, 16.28876130
1.12445088, 16.15721725
1.21016494, 16.02124588
1.28120262, 15.88272775
1.33344364, 15.74045305
1.37684978, 15.59634599
1.40932257, 15.44990001
1.43160798, 15.30126888
1.44637001, 15.15105747
1.45185899, 14.99895683
1.45030472, 14.84551775
1.44174269, 14.69083602
1.42485624, 14.53476158
1.43702454, 14.38439362
1.50768963, 14.24520329
1.58884612, 14.10835454
1.67921439, 13.97377804
1.77799825, 13.84149387
1.88465083, 13.71156883
1.99876248, 13.58409550
2.12001084, 13.45918306
2.24813276, 13.33695209
2.38290427, 13.21753069
2.52413148, 13.10105285
2.67163663, 12.98765526
2.82526105, 12.87747842
2.98485588, 12.77066441
3.15028697, 12.66735879
3.32141660, 12.56770485
4.32104257, 12.98176342
4.37158354, 13.17323631
4.41551291, 13.36326186
4.45283461, 13.55164135
4.48355671, 13.73817700
4.50767442, 13.92266310
4.52517489, 14.10488808
4.53602907, 14.28462961
4.54019463, 14.46165584
4.53760375, 14.63571781
4.52815563, 14.80654418
4.51169954, 14.97382983
4.48801127, 15.13721960
4.45675134, 15.29627958
4.41737099, 15.45043257
4.36891634, 15.59882276
4.27119444, 15.71375326
4.14889263, 15.81217406
4.03346188, 15.91549630
3.92386505, 16.02289509
3.82019495, 16.13432779
3.72441779, 16.25098164
3.63507790, 16.37183790
3.55448670, 16.49835258
3.48328041, 16.63094444
3.41961700, 16.76848783
3.37190114, 16.91666618
3.33636386, 17.07342145
3.32369895, 17.24678790
3.34493664, 17.44655088
3.88908704, 18.11091244
3.88908704, 18.11091244
4.55344867, 18.65506275
4.75321166, 18.67630041
4.92657810, 18.66363548
5.08333337, 18.62809818
5.23151171, 18.58038230
5.36905509, 18.51671887
5.50164694, 18.44551257
5.62816162, 18.36492135
5.74901786, 18.27558144
5.86567170, 18.17980426
5.97710438, 18.07613415
6.08450316, 17.96653730
6.18782539, 17.85110654
6.28624616, 17.72880471
6.40117665, 17.63108280
6.54956684, 17.58262813
6.70371982, 17.54324776
6.86277980, 17.51198781
7.02616957, 17.48829952
7.19345521, 17.47184340
7.36428158, 17.46239526
7.53834356, 17.45980436
7.71536978, 17.46396989
7.89511131, 17.47482405
8.07733629, 17.49232450
8.26182240, 17.51644219
8.44835806, 17.54716426
8.63673755, 17.58448594
8.82676311, 17.62841527
9.01823601, 17.67895622
9.43229470, 18.67858214
9.33264079, 18.84971178
9.22933519, 19.01514289
9.12252120, 19.17473773
9.01234438, 19.32836216
8.89894681, 19.47586733
8.78246899, 19.61709456
8.66304761, 19.75186608
8.54081666, 19.87998802
8.41590423, 20.00123640
8.28843092, 20.11534805
8.15850589, 20.22200066
8.02622174, 20.32078453
7.89164524, 20.41115282
7.75479651, 20.49230933
7.61560618, 20.56297444
7.46523823, 20.57514276
7.30916378, 20.55825633
7.15448205, 20.54969433
7.00104298, 20.54814007
6.84894234, 20.55362907
6.69873093, 20.56839112
6.55009980, 20.59067656
6.40365383, 20.62314936
6.25954678, 20.66655552
6.11727208, 20.71879656
5.97875396, 20.78983426
5.84278259, 20.87554833
5.71123856, 20.98918148
5.58500212, 21.14545255
5.50000000, 21.99999956
5.50000000, 21.99999956
5.58500226, 22.85454655
5.71123872, 23.01081760
5.84278278, 23.12445073
5.97875415, 23.21016478
6.11727229, 23.28120246
6.25954699, 23.33344347
6.40365405, 23.37684961
6.55010003, 23.40932239
6.69873116, 23.43160780
6.84894257, 23.44636983
7.00104321, 23.45185880
7.15448229, 23.45030452
7.30916401, 23.44174249
7.46523846, 23.42485604
7.61560641, 23.43702434
7.75479675, 23.50768942
7.89164550, 23.58884591
8.02622201, 23.67921418
8.15850617, 23.77799803
8.28843122, 23.88465061
8.41590455, 23.99876225
8.54081700, 24.12001061
8.66304797, 24.24813253
8.78246938, 24.38290403
8.89894721, 24.52413124
9.01234481, 24.67163639
9.12252166, 24.82526080
9.22933567, 24.98485563
9.33264130, 25.15028672
9.43229524, 25.32141635
9.01823670, 26.32104233
8.82676381, 26.37158331
8.63673826, 26.41551267
8.44835877, 26.45283438
8.26182312, 26.48355649
8.07733702, 26.50767420
7.89511204, 26.52517468
7.71537051, 26.53602887
7.53834429, 26.54019443
7.36428231, 26.53760356
7.19345594, 26.52815544
7.02617029, 26.51169935
6.86278052, 26.48801108
6.70372054, 26.45675116
6.54956755, 26.41737081
6.40117735, 26.36891617
6.28624685, 26.27119428
6.18782605, 26.14889247
6.08450381, 26.03346172
5.97710502, 25.92386488
5.86567232, 25.82019480
5.74901846, 25.72441764
5.62816220, 25.63507775
5.50164751, 25.55448655
5.36905565, 25.48328027
5.23151226, 25.41961686
5.08333391, 25.37190100
4.92657864, 25.33636373
4.75321219, 25.32369882
4.55344921, 25.34493652
3.88908766, 25.88908693
3.88908766, 25.88908693
3.34493737, 26.55344858
3.32369971, 26.75321157
3.33636465, 26.92657801
3.37190195, 27.08333328
3.41961784, 27.23151162
3.48328128, 27.36905500
3.55448758, 27.50164685
3.63507880, 27.62816152
3.72441872, 27.74901776
3.82019590, 27.86567160
3.92386601, 27.97710428
4.03346286, 28.08450305
4.14889363, 28.18782528
4.27119545, 28.28624605
4.36891737, 28.40117653
4.41737204, 28.54956672
4.45675242, 28.70371970
4.48801237, 28.86277968
4.51170067, 29.02616945
4.52815679, 29.19345509
4.53760494, 29.36428146
4.54019584, 29.53834343
4.53603031, 29.71536966
4.52517616, 29.89511119
4.50767571, 30.07733617
4.48355804, 30.26182228
4.45283597, 30.44835794
4.41551429, 30.63673743
4.37158496, 30.82676299
4.32104402, 31.01823589
3.32141812, 31.43229461
" style="stroke:red;stroke-width:0.2%;fill:none" />
<circle cx="0.00000000" cy="22.00000000" r="2.00000000" style="stroke:red;stroke-width:0.2%;fill:none"/>
</svg>
